<svg xmlns="http://www.w3.org/2000/svg" x="0px" y="0px"
width="50" height="50"
viewBox="0 0 172 172"
style=" fill:#000000;"><g fill="none" fill-rule="nonzero" stroke="none" stroke-width="1" stroke-linecap="butt" stroke-linejoin="miter" stroke-miterlimit="10" stroke-dasharray="" stroke-dashoffset="0" font-family="none" font-weight="none" font-size="none" text-anchor="none" style="mix-blend-mode: normal"><path d="M0,172v-172h172v172z" fill="none"></path><g fill="#ffca27"><path d="M65.36,0c-35.70344,0 -65.36,25.77313 -65.36,58.1575c0,15.66813 7.02781,29.87156 18.275,40.3125c-1.65281,4.87781 -5.16,8.76125 -8.9225,11.825c-2.09625,1.70656 -4.13875,3.17125 -5.805,4.6225c-0.83312,0.72563 -1.59906,1.37063 -2.2575,2.365c-0.65844,0.99438 -1.33031,2.71438 -0.86,4.4075l0.43,1.29l1.1825,0.7525c3.57438,2.02906 7.91469,2.2575 12.47,1.935c4.55531,-0.3225 9.47344,-1.35719 14.2975,-2.6875c6.65156,-1.8275 12.34906,-4.00437 17.0925,-5.9125c9.59438,22.2525 33.49969,37.0875 60.7375,37.0875c4.6225,0 9.28531,-0.63156 13.6525,-1.29c4.70313,2.08281 25.22219,10.8575 39.4525,10.8575c4.085,0 7.25625,-0.72562 9.7825,-2.15l1.29,-0.7525l0.3225,-1.29c1.00781,-3.68187 -2.10969,-6.26187 -6.1275,-9.46c-4.04469,-3.21156 -9.39281,-7.48469 -11.7175,-13.4375c11.7175,-10.80375 18.3825,-25.4775 18.3825,-40.635c0,-24.75187 -18.06,-47.11187 -44.075,-55.04c-8.21031,-23.85156 -33.15031,-40.9575 -62.2425,-40.9575zM65.36,6.88c26.20313,0 48.06594,15.13063 55.47,35.7975c0.02688,0.08063 0.08063,0.13438 0.1075,0.215c0.04031,0.1075 0.06719,0.215 0.1075,0.3225c0.47031,1.35719 0.84656,2.6875 1.1825,4.085c0.24188,0.9675 0.36281,1.90813 0.5375,2.9025c0.04031,0.25531 0.06719,0.49719 0.1075,0.7525c0.14781,0.91375 0.33594,1.86781 0.43,2.795c0.01344,0.13438 -0.01344,0.29563 0,0.43c0.1075,1.30344 0.215,2.64719 0.215,3.9775c0,1.76031 -0.12094,3.44 -0.3225,5.16c-0.20156,1.74688 -0.47031,3.46688 -0.86,5.16c-0.77937,3.3325 -1.96187,6.50375 -3.44,9.5675c-1.47812,3.06375 -3.26531,5.97969 -5.375,8.7075c-1.04812,1.35719 -2.24406,2.71438 -3.44,3.9775c-1.19594,1.26313 -2.43219,2.49938 -3.7625,3.655c-1.30344,1.14219 -2.66062,2.29781 -4.085,3.3325c-7.22937,5.22719 -15.96375,8.93594 -25.4775,10.6425c-3.80281,0.68531 -7.68625,1.075 -11.7175,1.075c-2.32469,0 -4.63594,-0.12094 -6.88,-0.3225c-0.1075,-0.01344 -0.215,0.01344 -0.3225,0c-0.29562,-0.02687 -0.57781,-0.08062 -0.86,-0.1075c-0.79281,-0.09406 -1.6125,-0.20156 -2.365,-0.3225c-1.02125,-0.16125 -1.96187,-0.3225 -2.9025,-0.5375l-1.075,-0.3225l-1.075,0.43c-4.43437,1.86781 -13.47781,5.67063 -22.575,8.17c-4.55531,1.24969 -9.15094,2.19031 -13.0075,2.4725c-1.70656,0.12094 -2.41875,-0.38969 -3.7625,-0.5375c1.10188,-0.86 2.02906,-1.54531 3.44,-2.6875c4.58219,-3.73562 10.22594,-9.1375 12.04,-17.2l0.43,-2.0425l-1.505,-1.3975c-11.00531,-9.39281 -17.7375,-22.4675 -17.7375,-36.8725c0,-28.165 26.06875,-51.2775 58.48,-51.2775z"></path></g></g></svg>
