<?xml version="1.0" encoding="UTF-8"?>
<svg width="75px" height="76px" viewBox="0 0 75 76" version="1.1" xmlns="http://www.w3.org/2000/svg" xmlns:xlink="http://www.w3.org/1999/xlink">
    <!-- Generator: Sketch 49.3 (51167) - http://www.bohemiancoding.com/sketch -->
    <title>Temp_picture</title>
    <desc>Created with Sketch.</desc>
    <defs></defs>
    <g id="Full-Set-Mobile" stroke="none" stroke-width="1" fill="none" fill-rule="evenodd">
        <g id="1.0-Dashboard" transform="translate(-122.000000, -282.000000)" fill="#4B4F63">
            <g id="pic-" transform="translate(100.000000, 260.000000)">
                <g id="Picture">
                    <path d="M59.1349593,22 C38.3121951,22 22,38.6829268 22,60 C22,75.1382114 29.6,87.3105691 42.8227642,93.4276423 C47.8894309,96.1463415 52.6471545,98 59.3821138,98 C65.8081301,98 71.6162602,96.3317073 77.6715447,92.8097561 C90.3382114,86.8162602 97.0113821,75.4471545 97.0113821,60 C96.9495935,39.0536585 79.9577236,22 59.1349593,22 L59.1349593,22 Z M76.2504065,91.4504065 C70.6276423,94.6634146 65.3756098,96.1463415 59.3203252,96.1463415 C53.1414634,96.1463415 48.8780488,94.601626 44.1203252,92.0682927 L44.1203252,82.9853659 C44.1203252,73.1609756 51.0406504,65.8081301 60.1853659,65.8081301 C69.3300813,65.8081301 76.2504065,73.2227642 76.2504065,82.9853659 L76.2504065,91.4504065 L76.2504065,91.4504065 Z M59.8764228,63.9544715 C52.5853659,63.9544715 46.6536585,58.0227642 46.6536585,50.7317073 C46.6536585,43.4406504 52.5853659,37.5089431 59.8764228,37.5089431 C67.1674797,37.5089431 73.099187,43.4406504 73.099187,50.7317073 C73.099187,58.0227642 67.1674797,63.9544715 59.8764228,63.9544715 L59.8764228,63.9544715 Z M78.104065,90.5235772 L78.104065,82.9853659 C78.104065,74.0878049 72.9756098,66.9821138 65.499187,64.695935 C71.0601626,62.4715447 75.0146341,57.0341463 75.0146341,50.6699187 C75.0146341,42.3284553 68.2796748,35.5934959 59.9382114,35.5934959 C51.596748,35.5934959 44.8617886,42.3902439 44.8617886,50.6699187 C44.8617886,57.095935 48.9398374,62.595122 54.6243902,64.7577236 C47.3333333,67.1674797 42.3284553,74.1495935 42.3284553,82.9235772 L42.3284553,91.0796748 C30.5886179,85.0861789 23.8536585,73.8406504 23.8536585,59.9382114 C23.8536585,39.6715447 39.3626016,23.7918699 59.1349593,23.7918699 C78.9691057,23.7918699 95.095935,39.9804878 95.095935,59.9382114 C95.095935,74.396748 89.3495935,84.6536585 78.104065,90.5235772 L78.104065,90.5235772 Z" id="Temp_picture"></path>
                </g>
            </g>
        </g>
    </g>
</svg>