<?xml version="1.0" encoding="UTF-8"?>
<svg width="39px" height="38px" viewBox="0 0 39 38" version="1.1" xmlns="http://www.w3.org/2000/svg" xmlns:xlink="http://www.w3.org/1999/xlink">
    <!-- Generator: Sketch 49.3 (51167) - http://www.bohemiancoding.com/sketch -->
    <title>icon_music</title>
    <desc>Created with Sketch.</desc>
    <defs></defs>
    <g id="Full-Set-Mobile" stroke="none" stroke-width="1" fill="none" fill-rule="evenodd">
        <g id="0.0" transform="translate(-48.000000, -327.000000)" fill="#FFCC27">
            <g id="Reasons-with-icons" transform="translate(24.000000, 326.000000)">
                <g id="icon_music" transform="translate(24.000000, 1.000000)">
                    <path d="M13.9741935,7.96774194 C10.5419355,7.96774194 7.72258065,10.7870968 7.72258065,14.2193548 C7.72258065,17.6516129 10.5419355,20.4709677 13.9741935,20.4709677 C17.4064516,20.4709677 20.2258065,17.6516129 20.2258065,14.2193548 C20.2258065,10.7870968 17.4064516,7.96774194 13.9741935,7.96774194 L13.9741935,7.96774194 Z M13.9741935,19.2451613 C11.216129,19.2451613 8.9483871,16.9774194 8.9483871,14.2193548 C8.9483871,11.4612903 11.216129,9.19354839 13.9741935,9.19354839 C16.7322581,9.19354839 19,11.4612903 19,14.2193548 C19,16.9774194 16.7322581,19.2451613 13.9741935,19.2451613 L13.9741935,19.2451613 Z" id="Shape"></path>
                    <path d="M13.9741935,11.5225806 C12.5032258,11.5225806 11.2774194,12.7483871 11.2774194,14.2193548 C11.2774194,15.6903226 12.5032258,16.916129 13.9741935,16.916129 C15.4451613,16.916129 16.6709677,15.6903226 16.6709677,14.2193548 C16.6709677,12.7483871 15.4451613,11.5225806 13.9741935,11.5225806 L13.9741935,11.5225806 Z M13.9741935,15.6903226 C13.1774194,15.6903226 12.5032258,15.016129 12.5032258,14.2193548 C12.5032258,13.4225806 13.1774194,12.7483871 13.9741935,12.7483871 C14.7709677,12.7483871 15.4451613,13.4225806 15.4451613,14.2193548 C15.4451613,15.016129 14.7709677,15.6903226 13.9741935,15.6903226 L13.9741935,15.6903226 Z" id="Shape"></path>
                    <path d="M14.5870968,4.71935484 C14.5870968,4.3516129 14.3419355,4.10645161 13.9741935,4.10645161 C8.39677419,4.10645161 3.92258065,8.64193548 3.92258065,14.1580645 C3.92258065,14.5258065 4.16774194,14.7709677 4.53548387,14.7709677 C4.90322581,14.7709677 5.1483871,14.5258065 5.1483871,14.1580645 C5.1483871,9.25483871 9.13225806,5.33225806 13.9741935,5.33225806 C14.2806452,5.33225806 14.5870968,5.08709677 14.5870968,4.71935484 L14.5870968,4.71935484 Z" id="Shape"></path>
                    <path d="M37.9387097,29.6032258 L37.9387097,11.8903226 C37.9387097,11.7064516 37.8774194,11.5225806 37.6935484,11.4 C37.5709677,11.2774194 37.3870968,11.216129 37.2032258,11.2774194 L28.0096774,13.3 C27.7032258,5.88387097 21.6967742,0.183870968 14.0354839,0.183870968 C6.31290323,0.183870968 0.0612903226,6.43548387 0.0612903226,14.1580645 C0.0612903226,21.8806452 6.31290323,28.1322581 14.0354839,28.1322581 C16.8548387,28.1322581 19.2451613,27.4580645 21.3290323,26.0483871 L21.3290323,31.0129032 C20.6548387,30.4612903 19.8580645,30.1548387 18.9387097,30.1548387 C16.8548387,30.1548387 15.2,31.8709677 15.2,33.8935484 C15.2,35.9774194 16.916129,37.6322581 18.9387097,37.6322581 C21.0225806,37.6322581 22.6774194,35.916129 22.6774194,33.8935484 C22.6774194,33.5870968 22.616129,33.2806452 22.5548387,32.9741935 L22.5548387,15.7516129 L36.7741935,12.6258065 L36.7741935,27.7645161 C36.1,27.2129032 35.3032258,26.9064516 34.383871,26.9064516 C32.3612903,26.9064516 30.7064516,28.5612903 30.7064516,30.583871 C30.7064516,32.6064516 32.3612903,34.2612903 34.383871,34.2612903 C36.4064516,34.2612903 38.0612903,32.6064516 38.0612903,30.583871 C38.0612903,30.2774194 38,29.9709677 37.9387097,29.7258065 C37.8774194,29.7258065 37.9387097,29.6645161 37.9387097,29.6032258 L37.9387097,29.6032258 Z M18.8774194,36.5290323 C17.4677419,36.5290323 16.3645161,35.3645161 16.3645161,34.016129 C16.3645161,32.6064516 17.5290323,31.5032258 18.8774194,31.5032258 C20.2870968,31.5032258 21.3903226,32.6677419 21.3903226,34.016129 C21.3903226,35.3645161 20.2258065,36.5290323 18.8774194,36.5290323 L18.8774194,36.5290323 Z M21.7580645,14.7709677 C21.4516129,14.8322581 21.2677419,15.0774194 21.2677419,15.383871 L21.2677419,24.6387097 C19.183871,26.2322581 16.916129,26.9677419 13.9741935,26.9677419 C6.92580645,26.9677419 1.22580645,21.2677419 1.22580645,14.2193548 C1.22580645,7.17096774 6.92580645,1.47096774 13.9741935,1.47096774 C21.0225806,1.47096774 26.6,6.80322581 26.7225806,13.6677419 L21.7580645,14.7709677 L21.7580645,14.7709677 Z M34.3225806,33.0967742 C32.9741935,33.0967742 31.8709677,31.9935484 31.8709677,30.6451613 C31.8709677,29.2967742 32.9741935,28.1935484 34.3225806,28.1935484 C35.6709677,28.1935484 36.7741935,29.2967742 36.7741935,30.6451613 C36.7741935,31.9935484 35.6709677,33.0967742 34.3225806,33.0967742 L34.3225806,33.0967742 Z" id="Shape"></path>
                </g>
            </g>
        </g>
    </g>
</svg>