<?xml version="1.0" encoding="UTF-8"?>
<svg width="61px" height="61px" viewBox="0 0 61 61" version="1.1" xmlns="http://www.w3.org/2000/svg" xmlns:xlink="http://www.w3.org/1999/xlink">
    <!-- Generator: Sketch 49.3 (51167) - http://www.bohemiancoding.com/sketch -->
    <title>icon_subscription</title>
    <desc>Created with Sketch.</desc>
    <defs></defs>
    <g id="Full-Set-Mobile" stroke="none" stroke-width="1" fill="none" fill-rule="evenodd">
        <g id="10.0-Plans" transform="translate(-130.000000, -64.000000)" fill="#FFCA27">
            <g id="icon_subscription" transform="translate(130.000000, 64.000000)">
                <path d="M59.7073171,30.2682927 C51.6097561,27.9756098 48.097561,26.0243902 47.0731707,23.3902439 C46.097561,20.8536585 47.4634146,17.1463415 51.6585366,10.6097561 C51.8536585,10.3170732 51.804878,9.97560976 51.5609756,9.73170732 C51.3170732,9.48780488 50.9756098,9.43902439 50.6829268,9.58536585 C45.2195122,12.7073171 41.8536585,14.0731707 39.3658537,14.0731707 C35.5609756,14.0731707 33.3658537,10.7560976 31.0243902,1.34146341 C30.9268293,1 30.6341463,0.804878049 30.3414634,0.804878049 L30.3414634,0.804878049 C30,0.804878049 29.7073171,1 29.6585366,1.34146341 C27.0731707,10.7560976 24.7804878,14.0731707 21.0243902,14.0731707 C18.5365854,14.0731707 15.2195122,12.7073171 9.85365854,9.53658537 C9.56097561,9.34146341 9.17073171,9.3902439 8.97560976,9.63414634 C8.73170732,9.87804878 8.68292683,10.2682927 8.87804878,10.5121951 C12.9756098,17.097561 14.2439024,20.804878 13.2682927,23.3902439 C12.2439024,26.0243902 8.7804878,27.9756098 0.780487805,30.2682927 C0.43902439,30.3658537 0.243902439,30.6585366 0.243902439,31 C0.243902439,31.3414634 0.487804878,31.6341463 0.829268293,31.6829268 C8.63414634,33.4878049 12.1463415,35.195122 13.2195122,37.7804878 C14.3414634,40.3658537 13.1707317,44.1707317 9.07317073,51.2926829 C8.92682927,51.5853659 8.97560976,51.9756098 9.2195122,52.1707317 C9.46341463,52.3658537 9.85365854,52.4146341 10.1463415,52.2682927 C15.5121951,48.7560976 18.8292683,47.2926829 21.2682927,47.2926829 C24.8780488,47.2926829 27.0731707,50.7073171 29.6585366,60.2682927 C29.7560976,60.6097561 30.0487805,60.804878 30.3414634,60.804878 L30.3414634,60.804878 C30.6829268,60.804878 30.9756098,60.5609756 31.0243902,60.2682927 C33.3658537,50.6585366 35.4634146,47.2926829 39.1219512,47.2926829 C41.6097561,47.2926829 44.9756098,48.7560976 50.4390244,52.2195122 C50.7317073,52.4146341 51.1219512,52.3658537 51.3658537,52.1219512 C51.6097561,51.8780488 51.6585366,51.4878049 51.4634146,51.2439024 C47.2682927,44.2682927 46,40.4146341 47.0731707,37.8780488 C48.1463415,35.3414634 51.6585366,33.6341463 59.6585366,31.7804878 C60,31.6829268 60.195122,31.4390244 60.2439024,31.097561 C60.2439024,30.6585366 60.0487805,30.3170732 59.7073171,30.2682927 L59.7073171,30.2682927 Z M45.7560976,37.195122 C44.4878049,40.2682927 45.9512195,44.3170732 48.7804878,49.3902439 C44.4390244,46.8536585 41.5121951,45.7804878 39.1707317,45.7804878 C34.5853659,45.7804878 32.2926829,49.9268293 30.2926829,57.2439024 C28.097561,49.9268293 25.7560976,45.7804878 21.2195122,45.7804878 C18.8292683,45.7804878 16,46.8536585 11.7073171,49.4878049 C14.4390244,44.3658537 15.8536585,40.2682927 14.5365854,37.195122 C13.2195122,34.1219512 9.31707317,32.3658537 3.70731707,30.902439 C9.51219512,29.0487805 13.3658537,27.097561 14.5853659,23.9268293 C15.7560976,20.8536585 14.3414634,17 11.5609756,12.1707317 C15.7560976,14.5121951 18.6829268,15.4878049 21.0243902,15.4878049 C25.7073171,15.4878049 28.097561,11.3902439 30.2926829,4.2195122 C32.2926829,11.3902439 34.6341463,15.4878049 39.3658537,15.4878049 C41.7073171,15.4878049 44.6341463,14.5121951 48.9268293,12.2195122 C46.0487805,16.9512195 44.5365854,20.804878 45.7073171,23.8780488 C46.9268293,27.0487805 50.7804878,29.0487805 56.6829268,30.902439 C51.0243902,32.3658537 47.0731707,34.1219512 45.7560976,37.195122 L45.7560976,37.195122 Z" id="Shape"></path>
            </g>
        </g>
    </g>
</svg>