<?xml version="1.0" encoding="UTF-8"?>
<svg width="32px" height="41px" viewBox="0 0 32 41" version="1.1" xmlns="http://www.w3.org/2000/svg" xmlns:xlink="http://www.w3.org/1999/xlink">
    <!-- Generator: Sketch 49.3 (51167) - http://www.bohemiancoding.com/sketch -->
    <title>icon_player</title>
    <desc>Created with Sketch.</desc>
    <defs></defs>
    <g id="Full-Set-Mobile" stroke="none" stroke-width="1" fill="none" fill-rule="evenodd">
        <g id="2.5-Song-and-Game-End-Guest" transform="translate(-237.000000, -190.000000)" fill="#FFCC27">
            <g id="Reasons-with-icons" transform="translate(24.000000, 191.000000)">
                <g id="icon_player" transform="translate(214.000000, 0.000000)">
                    <path d="M24.2833333,19.56875 C25.3166667,20.2791667 26.0916667,20.4729167 26.6729167,20.4729167 C27.125,20.4729167 27.5125,20.34375 27.7708333,20.15 C28.0291667,19.95625 28.09375,19.5041667 27.9,19.2458333 C27.70625,18.9875 27.2541667,18.9229167 26.9958333,19.1166667 C26.7375,19.3104167 26.0270833,19.18125 24.99375,18.4708333 C23.83125,17.6958333 22.6041667,16.46875 21.50625,14.9833333 C21.3125,14.725 20.8604167,14.6604167 20.6020833,14.8541667 C20.34375,15.0479167 20.2791667,15.5 20.4729167,15.7583333 C21.6354167,17.3729167 22.9916667,18.7291667 24.2833333,19.56875 L24.2833333,19.56875 Z" id="Shape"></path>
                    <path d="M26.6729167,23.7666667 C27.1895833,23.8958333 27.70625,24.025 28.1583333,24.025 C28.8041667,24.025 29.3854167,23.83125 29.8375,23.5083333 C32.0333333,21.89375 31.3229167,16.1458333 25.8333333,8.58958333 C21.9583333,3.35833333 17.3729167,-0.129166667 14.4666667,-0.129166667 C13.8208333,-0.129166667 13.2395833,0.0645833333 12.7875,0.3875 C11.625,1.22708333 11.3020833,2.97083333 11.8833333,5.425 C11.8833333,5.48958333 11.81875,5.55416667 11.81875,5.61875 C11.3666667,23.44375 6.71666667,27.3833333 6.26458333,27.70625 L4.06875,27.70625 C3.68125,27.70625 3.42291667,27.9645833 3.42291667,28.3520833 L3.42291667,31.3229167 L0.452083333,31.3229167 C0.0645833333,31.3229167 -0.19375,31.58125 -0.19375,31.96875 L-0.19375,39.2020833 C-0.19375,39.5895833 0.0645833333,39.8479167 0.452083333,39.8479167 L25.8333333,39.8479167 C26.2208333,39.8479167 26.4791667,39.5895833 26.4791667,39.2020833 L26.4791667,36.23125 L28.8041667,36.23125 L28.8041667,38.2979167 C28.8041667,38.6854167 29.0625,38.94375 29.45,38.94375 C29.8375,38.94375 30.0958333,38.6854167 30.0958333,38.2979167 L30.0958333,35.5854167 L30.0958333,34.68125 L30.0958333,32.9375 C30.0958333,32.55 29.8375,32.2916667 29.45,32.2916667 C29.0625,32.2916667 28.8041667,32.55 28.8041667,32.9375 L28.8041667,34.7458333 L28.8041667,35.0041667 L26.4791667,35.0041667 L26.4791667,32.0333333 C26.4791667,31.6458333 26.2208333,31.3875 25.8333333,31.3875 L22.8625,31.3875 L22.8625,28.4166667 C22.8625,28.0291667 22.6041667,27.7708333 22.2166667,27.7708333 L8.33125,27.7708333 C9.88125,26.6083333 14.2729167,24.60625 26.4145833,23.9604167 C26.4791667,23.8958333 26.54375,23.83125 26.6729167,23.7666667 L26.6729167,23.7666667 Z M13.4979167,1.42083333 C13.75625,1.22708333 14.0791667,1.1625 14.4020833,1.1625 C16.5333333,1.1625 20.73125,4.00416667 24.7354167,9.36458333 C29.3208333,15.5645833 30.6770833,21.2479167 29.0625,22.475 C28.8041667,22.66875 28.48125,22.7333333 28.1583333,22.7333333 C26.0270833,22.7333333 21.8291667,19.8916667 17.825,14.53125 C15.69375,11.625 14.0791667,8.65416667 13.3041667,6.07083333 C12.59375,3.74583333 12.6583333,2.06666667 13.4979167,1.42083333 L13.4979167,1.42083333 Z M12.9166667,8.71875 C13.8208333,10.85 15.1770833,13.1104167 16.7916667,15.30625 C19.2458333,18.6645833 22.0229167,21.3125 24.4770833,22.7333333 C16.3395833,23.3145833 11.81875,24.5416667 9.3,25.6395833 C10.7208333,22.8625 12.4,17.7604167 12.9166667,8.71875 L12.9166667,8.71875 Z M25.1229167,38.6208333 L1.03333333,38.6208333 L1.03333333,32.6791667 L4.00416667,32.6791667 L22.1520833,32.6791667 L25.1229167,32.6791667 L25.1229167,38.6208333 L25.1229167,38.6208333 Z M21.50625,31.3875 L4.65,31.3875 L4.65,29.0625 L21.50625,29.0625 L21.50625,31.3875 L21.50625,31.3875 Z" id="Shape"></path>
                    <path d="M5.8125,34.1 C5.425,34.1 5.16666667,34.3583333 5.16666667,34.7458333 L5.16666667,36.5541667 C5.16666667,36.9416667 5.425,37.2 5.8125,37.2 C6.2,37.2 6.45833333,36.9416667 6.45833333,36.5541667 L6.45833333,34.7458333 C6.45833333,34.3583333 6.13541667,34.1 5.8125,34.1 L5.8125,34.1 Z" id="Shape"></path>
                    <path d="M20.2791667,34.1 C19.8916667,34.1 19.6333333,34.3583333 19.6333333,34.7458333 L19.6333333,36.5541667 C19.6333333,36.9416667 19.8916667,37.2 20.2791667,37.2 C20.6666667,37.2 20.925,36.9416667 20.925,36.5541667 L20.925,34.7458333 C20.925,34.3583333 20.6666667,34.1 20.2791667,34.1 L20.2791667,34.1 Z" id="Shape"></path>
                </g>
            </g>
        </g>
    </g>
</svg>