<?xml version="1.0" encoding="UTF-8"?>
<svg width="60px" height="61px" viewBox="0 0 60 61" version="1.1" xmlns="http://www.w3.org/2000/svg" xmlns:xlink="http://www.w3.org/1999/xlink">
    <!-- Generator: Sketch 49.3 (51167) - http://www.bohemiancoding.com/sketch -->
    <title>icon_Piano</title>
    <desc>Created with Sketch.</desc>
    <defs></defs>
    <g id="Full-Set-Mobile" stroke="none" stroke-width="1" fill="none" fill-rule="evenodd" opacity="0.5">
        <g id="10.0-Plans" transform="translate(-130.000000, -1563.000000)" fill="#4B4F63">
            <g id="Professional" transform="translate(48.000000, 1538.000000)">
                <g id="icon_Piano" transform="translate(82.000000, 25.000000)">
                    <path d="M1.04878049,59.3658537 C1.04878049,59.7560976 1.3902439,60.097561 1.7804878,60.097561 L58.902439,60.097561 C59.2926829,60.097561 59.6341463,59.7560976 59.6341463,59.3658537 L59.6341463,37.6585366 C59.6829268,37.0243902 60.2682927,30.8780488 56.7560976,29.3170732 C55.2439024,28.6341463 54.2195122,28.4878049 53.2439024,28.3902439 C51.8780488,28.2439024 50.6097561,28.0487805 47.7804878,26.2926829 C43.195122,23.4634146 42.7560976,17.5121951 42.5121951,14 L42.5121951,13.7560976 C42.2682927,10.2926829 39.4390244,0.341463415 30.1219512,0.195121951 C27.8292683,0.146341463 25.7317073,0.146341463 23.7804878,0.146341463 C21.6341463,0.146341463 19.8780488,0.146341463 18.1707317,0.195121951 C16.4634146,0.195121951 14.8536585,0.243902439 12.902439,0.243902439 C9.29268293,0.243902439 0.951219512,1.56097561 0.951219512,14 C0.951219512,23.7073171 1.14634146,37.5609756 1.14634146,37.6585366 L1.14634146,59.3658537 L1.04878049,59.3658537 Z M58.1219512,58.6341463 L2.46341463,58.6341463 L2.46341463,38.3414634 L9.14634146,38.3414634 L9.14634146,51.2195122 C9.14634146,51.6097561 9.48780488,51.9512195 9.87804878,51.9512195 L18.0243902,51.9512195 L26.1707317,51.9512195 L34.3170732,51.9512195 L42.4634146,51.9512195 L50.6097561,51.9512195 C51,51.9512195 51.3414634,51.6097561 51.3414634,51.2195122 L51.3414634,38.3414634 L58.0243902,38.3414634 L58.0243902,58.6341463 L58.1219512,58.6341463 Z M25.4878049,38.3414634 L25.4878049,50.4878049 L18.804878,50.4878049 L18.804878,38.3414634 L25.4878049,38.3414634 L25.4878049,38.3414634 Z M33.6829268,38.3414634 L33.6829268,50.4878049 L27,50.4878049 L27,38.3414634 L33.6829268,38.3414634 L33.6829268,38.3414634 Z M41.8292683,38.3414634 L41.8292683,50.4878049 L35.1463415,50.4878049 L35.1463415,38.3414634 L41.8292683,38.3414634 L41.8292683,38.3414634 Z M49.9756098,38.3414634 L49.9756098,50.4878049 L43.2926829,50.4878049 L43.2926829,38.3414634 L49.9756098,38.3414634 L49.9756098,38.3414634 Z M17.3414634,50.4878049 L10.6585366,50.4878049 L10.6585366,38.3414634 L17.3414634,38.3414634 L17.3414634,50.4878049 L17.3414634,50.4878049 Z M12.804878,1.65853659 C14.804878,1.65853659 16.4146341,1.65853659 18.1219512,1.6097561 C19.8292683,1.6097561 21.5853659,1.56097561 23.7317073,1.56097561 C25.6829268,1.56097561 27.7317073,1.56097561 30.0731707,1.6097561 C38.3170732,1.75609756 40.804878,10.7317073 41.0487805,13.8536585 L41.0487805,14.097561 C41.3414634,17.902439 41.7804878,24.3414634 47,27.5609756 C50.1219512,29.4634146 51.5853659,29.6585366 53.0487805,29.8536585 C53.9756098,29.9512195 54.804878,30.0487805 56.1219512,30.6829268 C58.0731707,31.5609756 58.3170732,35.0731707 58.2195122,36.9268293 L50.7560976,36.9268293 L42.6097561,36.9268293 L34.4634146,36.9268293 L26.3170732,36.9268293 L18.0731707,36.9268293 L9.92682927,36.9268293 L2.46341463,36.9268293 C2.41463415,33.9512195 2.26829268,22.4390244 2.26829268,14 C2.31707317,3.26829268 8.85365854,1.65853659 12.804878,1.65853659 L12.804878,1.65853659 Z" id="Shape"></path>
                    <path d="M8.56097561,13.902439 L33.0487805,13.902439 C33.4390244,13.902439 33.7804878,13.5609756 33.7804878,13.1707317 C33.7804878,12.7804878 33.4390244,12.4390244 33.0487805,12.4390244 L8.56097561,12.4390244 C8.17073171,12.4390244 7.82926829,12.7804878 7.82926829,13.1707317 C7.82926829,13.5609756 8.17073171,13.902439 8.56097561,13.902439 L8.56097561,13.902439 Z" id="Shape"></path>
                    <path d="M8.56097561,19.3170732 L33.0487805,19.3170732 C33.4390244,19.3170732 33.7804878,18.9756098 33.7804878,18.5853659 C33.7804878,18.195122 33.4390244,17.8536585 33.0487805,17.8536585 L8.56097561,17.8536585 C8.17073171,17.8536585 7.82926829,18.195122 7.82926829,18.5853659 C7.82926829,18.9756098 8.17073171,19.3170732 8.56097561,19.3170732 L8.56097561,19.3170732 Z" id="Shape"></path>
                </g>
            </g>
        </g>
    </g>
</svg>