<?xml version="1.0" encoding="UTF-8"?>
<svg width="37px" height="61px" viewBox="0 0 37 61" version="1.1" xmlns="http://www.w3.org/2000/svg" xmlns:xlink="http://www.w3.org/1999/xlink">
    <!-- Generator: Sketch 49.3 (51167) - http://www.bohemiancoding.com/sketch -->
    <title>icon_help</title>
    <desc>Created with Sketch.</desc>
    <defs></defs>
    <g id="Full-Set-Mobile" stroke="none" stroke-width="1" fill="none" fill-rule="evenodd">
        <g id="11.0-Help" transform="translate(-141.000000, -64.000000)" fill="#FFCA27">
            <g id="icon_help" transform="translate(141.000000, 65.000000)">
                <path d="M3.6097561,25.902439 C4.34146341,25.902439 4.97560976,25.6585366 5.51219512,25.3170732 C5.56097561,27.1219512 7.07317073,28.5853659 8.87804878,28.5853659 C9.6097561,28.5853659 10.2439024,28.3414634 10.7804878,28 C10.8292683,29.804878 12.3414634,31.2682927 14.1463415,31.2682927 C14.8780488,31.2682927 15.5121951,31.0243902 16.0487805,30.6829268 L16.0487805,38.4878049 C16.0487805,40.3414634 17.5609756,41.8536585 19.4146341,41.8536585 C21.2682927,41.8536585 22.7804878,40.3414634 22.7804878,38.4878049 L22.7804878,21.1219512 C24,22.9268293 26,25.4146341 28.097561,25.804878 C29.0243902,26 29.902439,25.7560976 30.6341463,25.1219512 C33.5121951,22.6829268 30.097561,17.3658537 25.7560976,10.6341463 L24.8780488,9.31707317 C23.1219512,6.58536585 21.1219512,3.51219512 19.1219512,0.146341463 C18.9756098,-0.0975609756 18.7317073,-0.195121951 18.4878049,-0.195121951 L18.4878049,-0.195121951 L5.65853659,-0.146341463 C5.51219512,-0.146341463 5.41463415,-0.0975609756 5.31707317,-0.0487804878 C-0.87804878,3.41463415 0.0487804878,15.1219512 0.146341463,16 L0.146341463,22.5853659 C0.195121951,24.3902439 1.70731707,25.902439 3.6097561,25.902439 L3.6097561,25.902439 Z M5.95121951,1.26829268 L18.195122,1.2195122 C20.097561,4.43902439 22.0487805,7.41463415 23.7560976,10.0487805 L24.6341463,11.3658537 C28.7804878,17.7560976 31.5609756,22.4390244 29.804878,23.9512195 C29.4146341,24.2926829 28.9756098,24.3902439 28.4878049,24.3414634 C26.3902439,23.9512195 23.8536585,20 23.0731707,18.5365854 C23.0243902,18.4390244 22.9268293,18.3414634 22.8292683,18.2926829 C22.7317073,18.0487805 22.4390244,17.8536585 22.1463415,17.8536585 C21.7560976,17.8536585 21.4146341,18.195122 21.4146341,18.5853659 L21.4146341,38.4390244 C21.4146341,39.5121951 20.5365854,40.3414634 19.5121951,40.3414634 C18.4878049,40.3414634 17.6097561,39.4634146 17.6097561,38.4390244 L17.6097561,27.804878 L17.6097561,26.4878049 L17.6097561,21.2195122 C17.6097561,20.8292683 17.2682927,20.4878049 16.8780488,20.4878049 C16.4878049,20.4878049 16.1463415,20.8292683 16.1463415,21.2195122 L16.1463415,26.4878049 L16.1463415,27.804878 C16.1463415,28.8780488 15.2682927,29.7073171 14.2439024,29.7073171 C13.2195122,29.7073171 12.3414634,28.8292683 12.3414634,27.804878 L12.3414634,25.1707317 L12.3414634,21.2195122 L12.3414634,18.5853659 C12.3414634,18.195122 12,17.8536585 11.6097561,17.8536585 C11.2195122,17.8536585 10.8780488,18.195122 10.8780488,18.5853659 L10.8780488,21.2195122 L10.8780488,25.1707317 C10.8780488,26.2439024 10,27.0731707 8.97560976,27.0731707 C7.95121951,27.0731707 7.07317073,26.195122 7.07317073,25.1707317 L7.07317073,22.5365854 L7.07317073,18.5853659 L7.07317073,15.9512195 C7.07317073,15.5609756 6.73170732,15.2195122 6.34146341,15.2195122 C5.95121951,15.2195122 5.6097561,15.5609756 5.6097561,15.9512195 L5.6097561,18.5853659 L5.6097561,22.5365854 C5.6097561,23.6097561 4.73170732,24.4390244 3.70731707,24.4390244 C2.68292683,24.4390244 1.80487805,23.5609756 1.80487805,22.5365854 L1.80487805,15.902439 L1.80487805,15.8536585 C1.65853659,15.7560976 0.634146341,4.43902439 5.95121951,1.26829268 L5.95121951,1.26829268 Z" id="Shape"></path>
                <path d="M1.80487805,59.7560976 L36.195122,59.7560976 C36.5853659,59.7560976 36.9268293,59.4146341 36.9268293,59.0243902 L36.9268293,51.0731707 C36.9268293,50.6829268 36.5853659,50.3414634 36.195122,50.3414634 L28.9756098,50.3414634 L28.9756098,45.804878 C28.9756098,45.4146341 28.6341463,45.0731707 28.2439024,45.0731707 L9.70731707,45.0731707 C9.31707317,45.0731707 8.97560976,45.4146341 8.97560976,45.804878 L8.97560976,50.3414634 L1.75609756,50.3414634 C1.36585366,50.3414634 1.02439024,50.6829268 1.02439024,51.0731707 L1.02439024,59.0243902 C1.07317073,59.4146341 1.41463415,59.7560976 1.80487805,59.7560976 L1.80487805,59.7560976 Z M10.4878049,46.5365854 L27.5609756,46.5365854 L27.5609756,50.3414634 L10.4878049,50.3414634 L10.4878049,46.5365854 L10.4878049,46.5365854 Z M2.53658537,51.804878 L35.4634146,51.804878 L35.4634146,58.2926829 L2.53658537,58.2926829 L2.53658537,51.804878 L2.53658537,51.804878 Z" id="Shape"></path>
            </g>
        </g>
    </g>
</svg>