<?xml version="1.0" encoding="UTF-8"?>
<svg width="76px" height="61px" viewBox="0 0 76 61" version="1.1" xmlns="http://www.w3.org/2000/svg" xmlns:xlink="http://www.w3.org/1999/xlink">
    <!-- Generator: Sketch 49.3 (51167) - http://www.bohemiancoding.com/sketch -->
    <title>icon_xylaphone</title>
    <desc>Created with Sketch.</desc>
    <defs></defs>
    <g id="Full-Set-Mobile" stroke="none" stroke-width="1" fill="none" fill-rule="evenodd" opacity="0.5">
        <g id="10.0-Plans" transform="translate(-122.000000, -1228.000000)" fill="#4B4F63">
            <g id="Annual-Pass" transform="translate(48.000000, 1203.000000)">
                <g id="icon_xylaphone" transform="translate(74.000000, 25.000000)">
                    <path d="M5.04081633,46.4693878 L11.8979592,46.4693878 C12.8163265,46.4693878 13.6734694,46.1632653 14.4081633,45.6734694 C14.4693878,48 16.3673469,49.8979592 18.755102,49.8979592 L25.6122449,49.8979592 C26.5306122,49.8979592 27.3877551,49.5918367 28.122449,49.1020408 C28.122449,51.244898 28.6122449,53.3265306 33.1428571,53.3265306 L40,53.3265306 C40.7346939,53.3265306 41.3469388,53.1428571 41.8979592,52.8367347 C41.9591837,54.8571429 42.5714286,56.755102 46.8571429,56.755102 L53.7142857,56.755102 C54.4489796,56.755102 55.0612245,56.5714286 55.6122449,56.2653061 C55.7959184,58.4693878 57.6938776,60.1836735 59.9591837,60.1836735 L66.8163265,60.1836735 C69.2040816,60.1836735 71.1632653,58.2244898 71.1632653,55.8367347 L71.1632653,49.5918367 L74.5918367,51.7959184 C74.7755102,51.9183673 74.8979592,51.9183673 75.0816327,51.9183673 C75.3877551,51.9183673 75.6938776,51.7959184 75.877551,51.4897959 C76.122449,51.0612245 76,50.5102041 75.6326531,50.2040816 L71.2244898,47.3877551 L71.2244898,4.34693878 C71.2244898,1.95918367 69.2653061,0 66.877551,0 L60.0204082,0 C57.8163265,0 55.9795918,1.65306122 55.7346939,3.73469388 C55.244898,3.55102041 54.6326531,3.42857143 53.8367347,3.42857143 L46.122449,3.42857143 C42.0816327,3.42857143 41.9591837,6.06122449 41.9591837,7.65306122 C40.9795918,6.97959184 39.877551,6.85714286 39.6326531,6.85714286 L32.7755102,6.85714286 C28.6122449,6.85714286 28.244898,8.93877551 28.1836735,11.0816327 C27.4489796,10.5918367 26.5918367,10.2857143 25.6734694,10.2857143 L18.755102,10.2857143 C16.3673469,10.2857143 14.4693878,12.1836735 14.4081633,14.5102041 C13.6734694,14.0204082 12.8163265,13.7142857 11.8979592,13.7142857 L5.04081633,13.7142857 C2.65306122,13.7142857 0.693877551,15.6734694 0.693877551,18.0612245 L0.693877551,42.0612245 C0.693877551,44.5102041 2.65306122,46.4693878 5.04081633,46.4693878 L5.04081633,46.4693878 Z M43,24.3061224 C46.244898,24.3061224 48.877551,26.9387755 48.877551,30.1836735 C48.877551,33.4285714 46.244898,36.0612245 43,36.0612245 C39.755102,36.0612245 37.122449,33.4285714 37.122449,30.1836735 C37.122449,26.9387755 39.755102,24.3061224 43,24.3061224 L43,24.3061224 Z M53.7142857,54.9183673 L46.8571429,54.9183673 C43.6734694,54.9183673 43.6734694,54.0612245 43.6734694,52.4081633 L43.6734694,48.9795918 L43.6734694,37.8367347 C45.6938776,37.6530612 47.5306122,36.6734694 48.755102,35.2040816 L55.5510204,39.6122449 L55.5510204,52.4081633 C55.6122449,53.3265306 55.3673469,54.9183673 53.7142857,54.9183673 L53.7142857,54.9183673 Z M69.3265306,55.8367347 C69.3265306,57.244898 68.2244898,58.3469388 66.8163265,58.3469388 L59.9591837,58.3469388 C58.5510204,58.3469388 57.4489796,57.244898 57.4489796,55.8367347 L57.4489796,52.4081633 L57.4489796,40.7755102 L69.3265306,48.4285714 L69.3265306,55.8367347 L69.3265306,55.8367347 Z M57.4489796,4.34693878 C57.4489796,2.93877551 58.5510204,1.83673469 59.9591837,1.83673469 L66.8163265,1.83673469 C68.2244898,1.83673469 69.3265306,2.93877551 69.3265306,4.34693878 L69.3265306,46.2244898 L57.4489796,38.5714286 L57.4489796,7.7755102 L57.4489796,4.34693878 L57.4489796,4.34693878 Z M46,5.26530612 L53.7142857,5.26530612 C55.6122449,5.26530612 55.6122449,5.87755102 55.6122449,7.7755102 L55.6122449,37.4081633 L49.8571429,33.6734694 C50.4081633,32.6326531 50.7142857,31.4693878 50.7142857,30.1836735 C50.7142857,26.2040816 47.6530612,22.8979592 43.7346939,22.5306122 L43.7346939,11.1428571 L43.7346939,10.7142857 L43.7346939,7.71428571 C43.7346939,6.06122449 43.7346939,5.26530612 46,5.26530612 L46,5.26530612 Z M29.9591837,11.2040816 C29.9591837,9.55102041 29.9591837,8.69387755 32.7142857,8.69387755 L39.5102041,8.69387755 C39.5102041,8.69387755 42.0204082,9 41.8367347,11.2040816 L41.8367347,22.5306122 C38.1020408,23.0816327 35.2244898,26.2653061 35.2244898,30.122449 C35.2244898,33.9795918 38.1020408,37.2244898 41.8367347,37.7142857 L41.8367347,48.9795918 C41.8367347,49.8979592 41.5918367,51.4897959 39.9387755,51.4897959 L33.0816327,51.4897959 C29.8979592,51.4897959 29.8979592,50.6326531 29.8979592,48.9795918 L29.8979592,45.5510204 L29.8979592,14.6326531 L29.8979592,11.2040816 L29.9591837,11.2040816 Z M16.244898,14.6326531 C16.244898,13.2244898 17.3469388,12.122449 18.755102,12.122449 L25.6122449,12.122449 C27.0204082,12.122449 28.122449,13.2244898 28.122449,14.6326531 L28.122449,45.5510204 C28.122449,46.9591837 27.0204082,48.0612245 25.6122449,48.0612245 L18.755102,48.0612245 C17.3469388,48.0612245 16.244898,46.9591837 16.244898,45.5510204 L16.244898,42.122449 L16.244898,18.0612245 L16.244898,14.6326531 L16.244898,14.6326531 Z M2.53061224,18.0612245 C2.53061224,16.6530612 3.63265306,15.5510204 5.04081633,15.5510204 L11.8979592,15.5510204 C13.3061224,15.5510204 14.4081633,16.6530612 14.4081633,18.0612245 L14.4081633,42.0612245 C14.4081633,43.4693878 13.3061224,44.5714286 11.8979592,44.5714286 L5.04081633,44.5714286 C3.63265306,44.5714286 2.53061224,43.4693878 2.53061224,42.0612245 L2.53061224,18.0612245 L2.53061224,18.0612245 Z" id="Shape"></path>
                    <path d="M61.9795918,10.7755102 C63.3265306,10.7755102 64.4285714,9.67346939 64.4285714,8.32653061 C64.4285714,6.97959184 63.3265306,5.87755102 61.9795918,5.87755102 C60.6326531,5.87755102 59.5918367,6.97959184 59.5918367,8.32653061 C59.5918367,9.67346939 60.6326531,10.7755102 61.9795918,10.7755102 L61.9795918,10.7755102 Z" id="Shape"></path>
                    <path d="M48.2653061,14.2040816 C49.6122449,14.2040816 50.7142857,13.1020408 50.7142857,11.755102 C50.7142857,10.4081633 49.6122449,9.30612245 48.2653061,9.30612245 C46.9183673,9.30612245 45.8163265,10.4081633 45.8163265,11.755102 C45.8163265,13.1020408 46.9183673,14.2040816 48.2653061,14.2040816 L48.2653061,14.2040816 Z" id="Shape"></path>
                    <path d="M34.5510204,17.6326531 C35.8979592,17.6326531 37,16.5306122 37,15.1836735 C37,13.8367347 35.8979592,12.7346939 34.5510204,12.7346939 C33.2040816,12.7346939 32.1020408,13.8367347 32.1020408,15.1836735 C32.1020408,16.5306122 33.2040816,17.6326531 34.5510204,17.6326531 L34.5510204,17.6326531 Z" id="Shape"></path>
                    <path d="M20.8367347,21.0612245 C22.1836735,21.0612245 23.2857143,19.9591837 23.2857143,18.6122449 C23.2857143,17.2653061 22.1836735,16.1632653 20.8367347,16.1632653 C19.4897959,16.1632653 18.3877551,17.2653061 18.3877551,18.6122449 C18.3877551,20.0204082 19.4897959,21.0612245 20.8367347,21.0612245 L20.8367347,21.0612245 Z" id="Shape"></path>
                    <path d="M7.06122449,24.4897959 C8.40816327,24.4897959 9.51020408,23.3877551 9.51020408,22.0408163 C9.51020408,20.6938776 8.40816327,19.5918367 7.06122449,19.5918367 C5.71428571,19.5918367 4.67346939,20.6938776 4.67346939,22.0408163 C4.67346939,23.3877551 5.7755102,24.4897959 7.06122449,24.4897959 L7.06122449,24.4897959 Z" id="Shape"></path>
                    <path d="M61.9795918,55.4081633 C63.3265306,55.4081633 64.4285714,54.3061224 64.4285714,52.9591837 C64.4285714,51.6122449 63.3265306,50.5102041 61.9795918,50.5102041 C60.6326531,50.5102041 59.5918367,51.6122449 59.5918367,52.9591837 C59.5918367,54.3061224 60.6326531,55.4081633 61.9795918,55.4081633 L61.9795918,55.4081633 Z" id="Shape"></path>
                    <path d="M48.2653061,47.1428571 C46.9183673,47.1428571 45.8163265,48.244898 45.8163265,49.5918367 C45.8163265,50.9387755 46.9183673,52.0408163 48.2653061,52.0408163 C49.6122449,52.0408163 50.7142857,50.9387755 50.7142857,49.5918367 C50.7142857,48.1836735 49.6122449,47.1428571 48.2653061,47.1428571 L48.2653061,47.1428571 Z" id="Shape"></path>
                    <path d="M34.5510204,48.5510204 C35.8979592,48.5510204 37,47.4489796 37,46.1020408 C37,44.755102 35.8979592,43.6530612 34.5510204,43.6530612 C33.2040816,43.6530612 32.1020408,44.755102 32.1020408,46.1020408 C32.1020408,47.4489796 33.2040816,48.5510204 34.5510204,48.5510204 L34.5510204,48.5510204 Z" id="Shape"></path>
                    <path d="M20.8367347,45.122449 C22.1836735,45.122449 23.2857143,44.0204082 23.2857143,42.6734694 C23.2857143,41.3265306 22.1836735,40.2244898 20.8367347,40.2244898 C19.4897959,40.2244898 18.3877551,41.3265306 18.3877551,42.6734694 C18.3877551,44.0204082 19.4897959,45.122449 20.8367347,45.122449 L20.8367347,45.122449 Z" id="Shape"></path>
                    <path d="M7.06122449,41.6938776 C8.40816327,41.6938776 9.51020408,40.5918367 9.51020408,39.244898 C9.51020408,37.8979592 8.40816327,36.7959184 7.06122449,36.7959184 C5.71428571,36.7959184 4.67346939,37.8979592 4.67346939,39.244898 C4.67346939,40.5918367 5.7755102,41.6938776 7.06122449,41.6938776 L7.06122449,41.6938776 Z" id="Shape"></path>
                </g>
            </g>
        </g>
    </g>
</svg>