<?xml version="1.0" encoding="UTF-8"?>
<svg width="37px" height="39px" viewBox="0 0 37 39" version="1.1" xmlns="http://www.w3.org/2000/svg" xmlns:xlink="http://www.w3.org/1999/xlink">
    <!-- Generator: Sketch 49.3 (51167) - http://www.bohemiancoding.com/sketch -->
    <title>icon_stopwatch</title>
    <desc>Created with Sketch.</desc>
    <defs></defs>
    <g id="Full-Set-Mobile" stroke="none" stroke-width="1" fill="none" fill-rule="evenodd">
        <g id="0.0" transform="translate(-142.000000, -326.000000)" fill="#FFCC27">
            <g id="Reasons-with-icons" transform="translate(24.000000, 326.000000)">
                <g id="icon_stopwatch" transform="translate(118.000000, 0.000000)">
                    <path d="M18.1360656,24.5655738 C19.7131148,24.5655738 20.9868852,23.2918033 20.9868852,21.7147541 C20.9868852,20.3803279 20.0770492,19.2885246 18.8032787,18.9852459 L18.8032787,13.9508197 C18.8032787,13.5868852 18.5606557,13.3442623 18.1967213,13.3442623 C17.8327869,13.3442623 17.5901639,13.5868852 17.5901639,13.9508197 L17.5901639,18.9245902 C16.2557377,19.1672131 15.2852459,20.3196721 15.2852459,21.7147541 C15.2852459,23.2918033 16.5590164,24.5655738 18.1360656,24.5655738 L18.1360656,24.5655738 Z M18.1360656,20.0770492 C19.0459016,20.0770492 19.7737705,20.804918 19.7737705,21.7147541 C19.7737705,22.6245902 19.0459016,23.352459 18.1360656,23.352459 C17.2262295,23.352459 16.4983607,22.6245902 16.4983607,21.7147541 C16.4983607,20.804918 17.2262295,20.0770492 18.1360656,20.0770492 L18.1360656,20.0770492 Z" id="Shape"></path>
                    <path d="M0.849180328,10.7360656 C1.03114754,10.7360656 1.15245902,10.6754098 1.27377049,10.5540984 L4.1852459,7.64262295 L6.61147541,10.0688525 C3.57868852,13.0409836 1.75901639,17.1655738 1.75901639,21.7147541 C1.75901639,30.752459 9.09836066,38.0918033 18.1360656,38.0918033 C27.1737705,38.0918033 34.5131148,30.752459 34.5131148,21.7147541 C34.5131148,17.2868852 32.7540984,13.2229508 29.842623,10.3114754 L32.5114754,7.64262295 L35.4229508,10.5540984 C35.5442623,10.6754098 35.7262295,10.7360656 35.847541,10.7360656 C35.9688525,10.7360656 36.1508197,10.6754098 36.2721311,10.5540984 C36.5147541,10.3114754 36.5147541,9.94754098 36.2721311,9.70491803 L29.9639344,3.39672131 C29.7213115,3.15409836 29.357377,3.15409836 29.1147541,3.39672131 C28.8721311,3.63934426 28.8721311,4.00327869 29.1147541,4.24590164 L31.6016393,6.73278689 L28.9327869,9.40163934 C26.2032787,6.97540984 22.6852459,5.45901639 18.742623,5.27704918 L18.742623,4.85245902 L22.9278689,4.85245902 C24.2622951,4.85245902 25.4147541,3.82131148 25.4147541,2.54754098 L25.4147541,2.2442623 C25.4147541,0.970491803 24.3229508,0 22.9278689,0 L13.5868852,0 C12.3131148,0 11.4032787,0.909836066 11.4032787,2.2442623 L11.4032787,2.54754098 C11.4032787,3.88196721 12.3131148,4.85245902 13.5868852,4.85245902 L17.4688525,4.85245902 L17.4688525,5.33770492 C13.647541,5.45901639 10.1295082,6.9147541 7.4,9.21967213 L4.91311475,6.73278689 L7.4,4.24590164 C7.64262295,4.00327869 7.64262295,3.63934426 7.4,3.39672131 C7.15737705,3.15409836 6.79344262,3.15409836 6.55081967,3.39672131 L3.57868852,6.30819672 L3.57868852,6.30819672 L0.242622951,9.6442623 C8.61602456e-14,9.88688525 8.61602456e-14,10.2508197 0.242622951,10.4934426 C0.545901639,10.6754098 0.667213115,10.7360656 0.849180328,10.7360656 L0.849180328,10.7360656 Z M24.2622951,2.2442623 L24.2622951,2.54754098 C24.2622951,3.2147541 23.595082,3.63934426 22.9885246,3.63934426 L21.2295082,3.63934426 L21.2295082,1.21311475 L22.9885246,1.21311475 C23.595082,1.21311475 24.2622951,1.57704918 24.2622951,2.2442623 L24.2622951,2.2442623 Z M13.7081967,3.63934426 C12.8590164,3.63934426 12.7377049,2.91147541 12.7377049,2.54754098 L12.7377049,2.2442623 C12.7377049,1.88032787 12.8590164,1.21311475 13.7081967,1.21311475 L15.1639344,1.21311475 L15.1639344,3.63934426 L13.7081967,3.63934426 L13.7081967,3.63934426 Z M16.3770492,1.21311475 L20.0163934,1.21311475 L20.0163934,3.63934426 L16.3770492,3.63934426 L16.3770492,1.21311475 L16.3770492,1.21311475 Z M18.1360656,10.1295082 C24.504918,10.1295082 29.7213115,15.3459016 29.7213115,21.7147541 C29.7213115,28.0836066 24.504918,33.3 18.1360656,33.3 C11.7672131,33.3 6.55081967,28.0836066 6.55081967,21.7147541 C6.55081967,15.3459016 11.7065574,10.1295082 18.1360656,10.1295082 L18.1360656,10.1295082 Z M17.5901639,8.91639344 C10.7967213,9.21967213 5.33770492,14.8 5.33770492,21.7147541 C5.33770492,28.7508197 11.1,34.5131148 18.1360656,34.5131148 C25.1721311,34.5131148 30.9344262,28.7508197 30.9344262,21.7147541 C30.9344262,14.8606557 25.5360656,9.28032787 18.8032787,8.91639344 L18.8032787,6.55081967 C26.8704918,6.9147541 33.3,13.5868852 33.3,21.7147541 C33.3,30.0852459 26.5065574,36.8786885 18.1360656,36.8786885 C9.76557377,36.8786885 2.97213115,30.0852459 2.97213115,21.7147541 C2.97213115,13.5262295 9.52295082,6.85409836 17.5901639,6.55081967 L17.5901639,8.91639344 L17.5901639,8.91639344 Z" id="Shape"></path>
                </g>
            </g>
        </g>
    </g>
</svg>