<?xml version="1.0" encoding="UTF-8"?>
<svg width="51px" height="60px" viewBox="0 0 51 60" version="1.1" xmlns="http://www.w3.org/2000/svg" xmlns:xlink="http://www.w3.org/1999/xlink">
    <!-- Generator: Sketch 49.3 (51167) - http://www.bohemiancoding.com/sketch -->
    <title>icon_triangle</title>
    <desc>Created with Sketch.</desc>
    <defs></defs>
    <g id="Full-Set-Mobile" stroke="none" stroke-width="1" fill="none" fill-rule="evenodd" opacity="0.5">
        <g id="10.0-Plans" transform="translate(-135.000000, -283.000000)" fill="#4B4F63">
            <g id="Free-Plan" transform="translate(48.000000, 259.000000)">
                <path d="M126.273537,40.0749186 L120.263765,29.8143322 C118.065068,26.0521173 115.133472,24 111.957576,24 C108.78168,24 105.850084,26.1009772 103.749107,29.8631922 C99.6448723,37.1921824 92.9022013,49.1628664 88.7979668,56.4429967 C86.8924293,59.8631922 86.5015499,62.5993485 87.6253284,64.6026059 C88.9445466,66.8013029 92.1204424,67.9250814 97.0552958,67.9250814 L97.2507355,67.9250814 C99.0585531,67.9250814 101.06181,67.9250814 103.211648,67.8762215 L96.5178365,82.9739414 C96.3712567,83.3648208 96.5178365,83.7557003 96.908716,83.9511401 C97.0064359,84 97.1041557,84 97.2018756,84 C97.4950352,84 97.7393349,83.8534202 97.8859147,83.5602606 L104.824025,67.8273616 C112.592755,67.7785016 121.680703,67.7785016 127.739335,67.7296417 C132.723048,67.7296417 135.898944,66.6058632 137.169302,64.3583062 C138.293081,62.3550489 137.853341,59.6188925 135.801224,56.1498371 C133.260508,51.8990228 129.644872,45.7915309 126.273537,40.0749186 L126.273537,40.0749186 Z M135.898944,63.771987 C134.921745,65.4820847 132.087869,66.3615635 127.739335,66.3615635 C121.827283,66.3615635 113.081354,66.4104235 105.459205,66.4592834 L107.413602,62.0130293 C112.201876,62.0130293 117.967348,61.9641694 121.827283,61.9641694 C124.563439,61.9641694 126.664416,60.9869707 127.641615,59.228013 C128.667674,57.4201954 128.423374,55.1237785 127.006436,52.6807818 C124.367999,48.1856678 120.068325,40.8566775 117.429889,36.4104235 C116.012951,34.0162866 114.107413,32.6970684 112.104156,32.6970684 C110.052038,32.6970684 108.146501,34.0162866 106.778423,36.4592834 L97.5927551,52.8273616 C96.2246769,55.2214984 96.0780971,57.5179153 97.1041557,59.3257329 C98.1302144,61.0846906 100.231192,62.0618893 102.967348,62.0618893 L103.016208,62.0618893 L105.752364,62.0618893 L103.797967,66.5081433 C101.40383,66.5081433 99.156273,66.5081433 97.1530157,66.5570033 L97.0064359,66.5570033 C92.6579016,66.5570033 89.8240254,65.6286645 88.8468267,63.9185668 C87.9673479,62.4039088 88.3582274,60.1563518 90.0194652,57.2247557 C94.1236997,49.8957655 100.866371,37.9250814 104.970605,30.6449511 C106.827283,27.3224756 109.319139,25.514658 111.908716,25.514658 C114.498293,25.514658 117.039009,27.3224756 118.944547,30.5960912 L124.954319,40.8566775 C128.325654,46.6221498 131.892429,52.6807818 134.482006,57.0781759 C136.338683,60.009772 136.778423,62.3061889 135.898944,63.771987 L135.898944,63.771987 Z M112.299595,49.2605863 C111.908716,49.1140065 111.517837,49.2605863 111.322397,49.6514658 L106.485263,60.5960912 L103.065068,60.5960912 L103.016208,60.5960912 C100.817511,60.5960912 99.156273,59.8631922 98.423374,58.5928339 C97.641615,57.2736156 97.8370547,55.514658 98.9119733,53.5602606 L108.097641,37.1921824 C109.17256,35.237785 110.638358,34.1628664 112.104156,34.1628664 C113.618814,34.1628664 115.035752,35.237785 116.20839,37.1433225 C118.846827,41.6384365 123.146501,48.9674267 125.784937,53.4136808 C126.908716,55.3680782 127.153016,57.1758958 126.420117,58.4462541 C125.687218,59.7166124 124.07484,60.4495114 121.876143,60.4495114 C118.162788,60.4495114 112.788195,60.4983713 108.097641,60.4983713 L112.690475,50.1400651 C112.837055,49.8957655 112.641615,49.4560261 112.299595,49.2605863 L112.299595,49.2605863 Z" id="icon_triangle"></path>
            </g>
        </g>
    </g>
</svg>