<?xml version="1.0" encoding="UTF-8"?>
<svg width="44px" height="39px" viewBox="0 0 44 39" version="1.1" xmlns="http://www.w3.org/2000/svg" xmlns:xlink="http://www.w3.org/1999/xlink">
    <!-- Generator: Sketch 49.3 (51167) - http://www.bohemiancoding.com/sketch -->
    <title>icon_saveMusic</title>
    <desc>Created with Sketch.</desc>
    <defs></defs>
    <g id="Full-Set-Mobile" stroke="none" stroke-width="1" fill="none" fill-rule="evenodd">
        <g id="2.5-Song-and-Game-End-Guest" transform="translate(-138.000000, -193.000000)" fill="#FFCC27">
            <g id="Reasons-with-icons" transform="translate(24.000000, 191.000000)">
                <g id="icon_saveMusic" transform="translate(114.000000, 2.000000)">
                    <path d="M23.1354839,26.3290323 C20.8645161,26.3290323 18.9483871,28.1741935 18.9483871,30.516129 C18.9483871,32.7870968 20.7935484,34.7032258 23.1354839,34.7032258 C25.4064516,34.7032258 27.3225806,32.8580645 27.3225806,30.516129 C27.3225806,30.0903226 27.2516129,29.7354839 27.1806452,29.3806452 L27.1806452,16.6774194 L37.5419355,14.4064516 L37.5419355,25.3354839 C36.8322581,24.8387097 35.9806452,24.483871 35.0580645,24.483871 C32.7870968,24.483871 30.8709677,26.3290323 30.8709677,28.6709677 C30.8709677,30.9419355 32.716129,32.8580645 35.0580645,32.8580645 C37.4,32.8580645 39.2451613,31.0129032 39.2451613,28.6709677 C39.2451613,28.1741935 39.1741935,27.6774194 38.9612903,27.1806452 L38.9612903,27.0387097 L38.9612903,13.5548387 C38.9612903,13.3419355 38.8903226,13.1290323 38.6774194,12.9870968 C38.5354839,12.8451613 38.3225806,12.7741935 38.1096774,12.8451613 L26.3290323,15.4709677 C25.9741935,15.5419355 25.7612903,15.8258065 25.7612903,16.1806452 L25.7612903,27.3935484 C25.0516129,26.683871 24.1290323,26.3290323 23.1354839,26.3290323 L23.1354839,26.3290323 Z M34.9870968,31.2967742 C33.4967742,31.2967742 32.2193548,30.0903226 32.2193548,28.5290323 C32.2193548,27.0387097 33.4258065,25.7612903 34.9870968,25.7612903 C36.5483871,25.7612903 37.7548387,26.9677419 37.7548387,28.5290323 C37.7548387,30.0903226 36.5483871,31.2967742 34.9870968,31.2967742 L34.9870968,31.2967742 Z M23.1354839,33.2129032 C21.6451613,33.2129032 20.3677419,32.0064516 20.3677419,30.4451613 C20.3677419,28.9548387 21.5741935,27.6774194 23.1354839,27.6774194 C24.3419355,27.6774194 25.4064516,28.4580645 25.7612903,29.5935484 C25.7612903,29.6645161 25.7612903,29.7354839 25.8322581,29.8064516 C25.9032258,30.0193548 25.9032258,30.2322581 25.9032258,30.4451613 C25.9032258,32.0064516 24.6967742,33.2129032 23.1354839,33.2129032 L23.1354839,33.2129032 Z" id="Shape"></path>
                    <path d="M43.2903226,8.30322581 L23.4193548,8.30322581 C21.7870968,3.5483871 17.316129,0.0709677419 12.0645161,0.0709677419 C5.46451613,0.0709677419 0.0709677419,5.46451613 0.0709677419,12.0645161 C0.0709677419,18.0258065 4.4,22.9225806 10.0774194,23.916129 L10.0774194,37.4709677 C10.0774194,37.8967742 10.3612903,38.1806452 10.7870968,38.1806452 L43.2903226,38.1806452 C43.716129,38.1806452 44,37.8967742 44,37.4709677 L44,9.01290323 C44,8.58709677 43.716129,8.30322581 43.2903226,8.30322581 L43.2903226,8.30322581 Z M1.41935484,12.1354839 C1.41935484,6.31612903 6.17419355,1.56129032 11.9935484,1.56129032 C17.8129032,1.56129032 22.5677419,6.31612903 22.5677419,12.1354839 C22.5677419,17.9548387 17.8129032,22.7096774 11.9935484,22.7096774 C6.17419355,22.7096774 1.41935484,17.9548387 1.41935484,12.1354839 L1.41935484,12.1354839 Z M11.4258065,24.1290323 L11.9935484,24.1290323 C12.7032258,24.1290323 13.4129032,24.0580645 14.0516129,23.916129 L14.0516129,36.4774194 C14.0516129,36.6193548 14.0516129,36.6903226 14.1225806,36.7612903 L11.4258065,36.7612903 L11.4258065,24.1290323 L11.4258065,24.1290323 Z M42.5806452,36.7612903 L15.4,36.7612903 C15.4709677,36.6903226 15.4709677,36.5483871 15.4709677,36.4774194 L15.4709677,23.6322581 C20.3677419,22.1419355 23.9870968,17.5290323 23.9870968,12.1354839 C23.9870968,11.283871 23.916129,10.5032258 23.7741935,9.72258065 L42.5806452,9.72258065 L42.5806452,36.7612903 L42.5806452,36.7612903 Z" id="Shape"></path>
                    <path d="M12.9870968,18.0967742 L12.9870968,12.7741935 L18.3096774,12.7741935 C18.7354839,12.7741935 19.0193548,12.4903226 19.0193548,12.0645161 C19.0193548,11.6387097 18.7354839,11.3548387 18.3096774,11.3548387 L12.9870968,11.3548387 L12.9870968,6.03225806 C12.9870968,5.60645161 12.7032258,5.32258065 12.2774194,5.32258065 C11.8516129,5.32258065 11.5677419,5.60645161 11.5677419,6.03225806 L11.5677419,11.3548387 L6.24516129,11.3548387 C5.81935484,11.3548387 5.53548387,11.6387097 5.53548387,12.0645161 C5.53548387,12.4903226 5.81935484,12.7741935 6.24516129,12.7741935 L11.5677419,12.7741935 L11.5677419,18.0967742 C11.5677419,18.5225806 11.8516129,18.8064516 12.2774194,18.8064516 C12.7032258,18.8064516 12.9870968,18.5225806 12.9870968,18.0967742 L12.9870968,18.0967742 Z" id="Shape"></path>
                </g>
            </g>
        </g>
    </g>
</svg>