<?xml version="1.0" encoding="UTF-8"?>
<svg width="31px" height="41px" viewBox="0 0 31 41" version="1.1" xmlns="http://www.w3.org/2000/svg" xmlns:xlink="http://www.w3.org/1999/xlink">
    <!-- Generator: Sketch 49.3 (51167) - http://www.bohemiancoding.com/sketch -->
    <title>icon_Ribbon</title>
    <desc>Created with Sketch.</desc>
    <defs></defs>
    <g id="Full-Set-Mobile" stroke="none" stroke-width="1" fill="none" fill-rule="evenodd">
        <g id="2.5-Song-and-Game-End-Guest" transform="translate(-52.000000, -191.000000)" fill="#FFCC27">
            <g id="Reasons-with-icons" transform="translate(24.000000, 191.000000)">
                <g id="icon_Ribbon" transform="translate(29.000000, 0.000000)">
                    <path d="M29.2636364,14.7636364 C29.2636364,6.59090909 22.6068182,0 14.5,0 C6.39318182,0 -0.263636364,6.59090909 -0.263636364,14.7636364 C-0.263636364,19.7727273 2.24090909,24.1227273 5.99772727,26.825 L1.38409091,36.5795455 C1.25227273,36.7772727 1.31818182,37.0409091 1.45,37.2386364 C1.58181818,37.4363636 1.77954545,37.5681818 2.04318182,37.5022727 L6.45909091,37.1727273 L8.76590909,40.6 C8.89772727,40.7977273 9.09545455,40.8636364 9.29318182,40.8636364 L9.35909091,40.8636364 C9.62272727,40.8636364 9.82045455,40.6659091 9.88636364,40.4681818 L14.2363636,29.5931818 L18.9818182,40.4681818 C19.0477273,40.6659091 19.3113636,40.8636364 19.5090909,40.8636364 L19.575,40.8636364 C19.7727273,40.8636364 19.9704545,40.7318182 20.1022727,40.6 L22.4090909,37.1727273 L26.825,37.5022727 C27.0886364,37.5022727 27.2863636,37.4363636 27.4181818,37.2386364 C27.55,37.0409091 27.55,36.7772727 27.4840909,36.5795455 L22.8704545,26.825 C26.7590909,24.1227273 29.2636364,19.7068182 29.2636364,14.7636364 L29.2636364,14.7636364 Z M9.16136364,38.8204545 L7.38181818,36.1181818 C7.25,35.9204545 7.05227273,35.7886364 6.78863636,35.8545455 L3.09772727,36.1181818 L7.18409091,27.55 C8.89772727,28.5386364 10.875,29.1977273 12.9840909,29.4613636 L9.16136364,38.8204545 L9.16136364,38.8204545 Z M25.9022727,36.0522727 L22.2113636,35.7886364 C21.9477273,35.7886364 21.75,35.8545455 21.6181818,36.0522727 L19.7727273,38.8204545 L15.6863636,29.3954545 C17.9272727,29.1977273 19.9704545,28.5386364 21.8159091,27.4840909 L25.9022727,36.0522727 L25.9022727,36.0522727 Z M14.5,28.1431818 C7.11818182,28.1431818 1.05454545,22.1454545 1.05454545,14.7636364 C1.05454545,7.31590909 7.11818182,1.31818182 14.5,1.31818182 C21.8818182,1.31818182 27.9454545,7.31590909 27.9454545,14.7636364 C27.9454545,22.1454545 21.8818182,28.1431818 14.5,28.1431818 L14.5,28.1431818 Z" id="Shape"></path>
                    <path d="M23.9909091,11.7318182 C23.925,11.4681818 23.7272727,11.3363636 23.4636364,11.2704545 L17.5318182,10.4136364 L14.8954545,5.00909091 C14.6977273,4.54772727 13.9068182,4.54772727 13.7090909,5.00909091 L11.0727273,10.4136364 L5.14090909,11.2704545 C4.87727273,11.3363636 4.67954545,11.4681818 4.61363636,11.7318182 C4.54772727,11.9954545 4.61363636,12.2590909 4.81136364,12.3909091 L9.09545455,16.6090909 L8.10681818,22.5409091 C8.04090909,22.8045455 8.17272727,23.0681818 8.37045455,23.2 C8.56818182,23.3318182 8.83181818,23.3977273 9.09545455,23.2659091 L14.4340909,20.4977273 L19.7727273,23.2659091 C19.8386364,23.3318182 19.9704545,23.3318182 20.1022727,23.3318182 C20.2340909,23.3318182 20.3659091,23.2659091 20.4977273,23.2 C20.6954545,23.0681818 20.8272727,22.8045455 20.7613636,22.5409091 L19.7727273,16.6090909 L24.0568182,12.3909091 C23.9909091,12.2590909 24.0568182,11.9954545 23.9909091,11.7318182 L23.9909091,11.7318182 Z M18.3227273,15.8840909 C18.1909091,16.0159091 18.125,16.2795455 18.125,16.4772727 L18.9818182,21.4204545 L14.5659091,19.1136364 C14.5,19.0477273 14.3681818,19.0477273 14.2363636,19.0477273 C14.1045455,19.0477273 14.0386364,19.0477273 13.9068182,19.1136364 L9.49090909,21.4204545 L10.3477273,16.4772727 C10.4136364,16.2795455 10.2818182,16.0159091 10.15,15.8840909 L6.59090909,12.3909091 L11.5340909,11.6659091 C11.7318182,11.6659091 11.9295455,11.4681818 12.0613636,11.3363636 L14.3022727,6.85454545 L16.5431818,11.3363636 C16.6090909,11.5340909 16.8068182,11.6659091 17.0704545,11.6659091 L22.0136364,12.3909091 L18.3227273,15.8840909 L18.3227273,15.8840909 Z" id="Shape"></path>
                </g>
            </g>
        </g>
    </g>
</svg>