<?xml version="1.0" encoding="UTF-8"?>
<svg width="54px" height="60px" viewBox="0 0 54 60" version="1.1" xmlns="http://www.w3.org/2000/svg" xmlns:xlink="http://www.w3.org/1999/xlink">
    <!-- Generator: Sketch 49.3 (51167) - http://www.bohemiancoding.com/sketch -->
    <title>icon_guitar</title>
    <desc>Created with Sketch.</desc>
    <defs></defs>
    <g id="Full-Set-Mobile" stroke="none" stroke-width="1" fill="none" fill-rule="evenodd" opacity="0.5">
        <g id="9.0-Settings" transform="translate(-133.000000, -653.000000)" fill="#4B4F63">
            <g id="My-Plan" transform="translate(0.000000, 552.000000)">
                <g id="Personal-Plan" transform="translate(48.000000, 77.000000)">
                    <g id="icon_guitar" transform="translate(85.000000, 23.000000)">
                        <path d="M7.43548387,54.4193548 L10.2419355,56.5483871 C13.8225806,59.3548387 16.9677419,60.7580645 19.6290323,60.7580645 C20.6935484,60.7580645 21.6612903,60.516129 22.5806452,60.0806452 C28.0483871,57.4193548 28.7258065,47.6935484 28.7741935,45.4193548 C30.8548387,44.4516129 38.3548387,40.7258065 37.8225806,36.6612903 C37.483871,34.0483871 35.2096774,31.7258065 33.3709677,30.2258065 C33.3225806,30.1774194 33.2741935,30.1774194 33.2258065,30.1290323 L40.5322581,20.6935484 L42.1290323,21.9516129 C42.2741935,22.0483871 42.4193548,22.0967742 42.5645161,22.0967742 L42.6612903,22.0967742 C42.8548387,22.0967742 43.0483871,21.9516129 43.1451613,21.8064516 L43.9193548,20.7903226 C43.9193548,20.983871 44.016129,21.1774194 44.1129032,21.2741935 C44.2580645,21.4193548 44.4516129,21.4677419 44.6451613,21.4677419 C44.8387097,21.4677419 45.0322581,21.3709677 45.1774194,21.2741935 C45.3225806,21.1290323 45.3709677,20.9354839 45.3709677,20.7419355 C45.3709677,20.5483871 45.2741935,20.3548387 45.1774194,20.2096774 C44.983871,20.016129 44.7419355,19.9677419 44.5,20.0645161 L47.3064516,16.483871 C47.3064516,16.6774194 47.4032258,16.8709677 47.5,16.9677419 C47.6451613,17.1129032 47.8387097,17.1612903 48.0322581,17.1612903 C48.2258065,17.1612903 48.4193548,17.0645161 48.5645161,16.9677419 C48.7096774,16.8225806 48.7580645,16.6290323 48.7580645,16.4354839 C48.7580645,16.2419355 48.6612903,16.0483871 48.5645161,15.9032258 C48.3709677,15.7096774 48.1290323,15.6612903 47.8870968,15.7580645 L50.6935484,12.1774194 C50.6935484,12.3709677 50.7903226,12.5645161 50.8870968,12.6612903 C51.0322581,12.8064516 51.2258065,12.8548387 51.4193548,12.8548387 C51.6129032,12.8548387 51.8064516,12.7580645 51.9516129,12.6612903 C52.0967742,12.516129 52.1451613,12.3225806 52.1451613,12.1290323 C52.1451613,11.9354839 52.0483871,11.7419355 51.9516129,11.5967742 C51.7580645,11.4032258 51.516129,11.3548387 51.2741935,11.4032258 L53.2580645,8.83870968 C53.5,8.5 53.4516129,8.06451613 53.1129032,7.82258065 L44.5967742,1.14516129 C44.4516129,1.0483871 44.2580645,0.951612903 44.0645161,1 C43.8709677,1 43.6774194,1.14516129 43.5806452,1.29032258 L41.4516129,4 C41.5,3.90322581 41.5,3.85483871 41.5,3.75806452 C41.5,3.56451613 41.4032258,3.37096774 41.3064516,3.22580645 C41.016129,2.93548387 40.5322581,2.93548387 40.2903226,3.22580645 C40.1451613,3.37096774 40.0967742,3.56451613 40.0967742,3.75806452 C40.0967742,3.9516129 40.1935484,4.14516129 40.2903226,4.29032258 C40.4354839,4.43548387 40.6290323,4.48387097 40.8225806,4.48387097 C40.9677419,4.48387097 41.1129032,4.43548387 41.2096774,4.38709677 L38.1612903,8.25806452 C38.2096774,8.16129032 38.2096774,8.11290323 38.2096774,8.01612903 C38.2096774,7.82258065 38.1129032,7.62903226 38.016129,7.48387097 C37.7258065,7.19354839 37.2419355,7.19354839 37,7.48387097 C36.8548387,7.62903226 36.8064516,7.82258065 36.8064516,8.01612903 C36.8064516,8.20967742 36.9032258,8.40322581 37,8.5483871 C37.1451613,8.69354839 37.3387097,8.74193548 37.5322581,8.74193548 C37.6774194,8.74193548 37.8225806,8.69354839 37.9193548,8.64516129 L34.8709677,12.516129 C34.9193548,12.4193548 34.9193548,12.3709677 34.9193548,12.2741935 C34.9193548,12.0806452 34.8225806,11.8870968 34.7258065,11.7419355 C34.4354839,11.4516129 33.9516129,11.4516129 33.7096774,11.7419355 C33.5645161,11.8870968 33.516129,12.0806452 33.516129,12.2741935 C33.516129,12.4677419 33.6129032,12.6612903 33.7096774,12.8064516 C33.8548387,12.9516129 34.0483871,13 34.2419355,13 C34.3870968,13 34.5322581,12.9516129 34.6290323,12.9032258 L33.7096774,14.0645161 C33.4677419,14.4032258 33.516129,14.8387097 33.8548387,15.0806452 L35.4032258,16.2903226 L28.0967742,25.6290323 C26.9354839,24.7580645 23.2580645,22.1935484 20.2580645,22.5806452 C16.1935484,23.0645161 14.3064516,31.2903226 13.8709677,33.516129 C11.6935484,34.1451613 2.40322581,37.0967742 1.14516129,43.0483871 C0.322580645,46.7741935 2.4516129,50.5 7.43548387,54.4193548 L7.43548387,54.4193548 Z M44.2580645,2.98387097 L51.6129032,8.74193548 L42.516129,20.3548387 L35.1612903,14.5967742 L44.2580645,2.98387097 L44.2580645,2.98387097 Z M39.4677419,19.8225806 L26.0645161,37.0967742 C25.6774194,36.4677419 25.1935484,35.8870968 24.6129032,35.4032258 C24.1290323,35.016129 23.5967742,34.7258065 23.0645161,34.5322581 L36.4193548,17.4032258 L39.4677419,19.8225806 L39.4677419,19.8225806 Z M23.6935484,36.5645161 C25.7258065,38.1612903 26.0645161,41.0645161 24.4677419,43.0967742 C23.5967742,44.2096774 22.2419355,44.8870968 20.7903226,44.8870968 C19.7258065,44.8870968 18.7580645,44.5483871 17.9354839,43.9193548 C16.9677419,43.1451613 16.3387097,42.0806452 16.1935484,40.8225806 C16.0483871,39.6129032 16.3870968,38.3548387 17.1612903,37.3870968 C18.0322581,36.2741935 19.3870968,35.5967742 20.8387097,35.5967742 C21.8548387,35.5483871 22.8225806,35.8870968 23.6935484,36.5645161 L23.6935484,36.5645161 Z M2.4516129,43.5806452 C3.66129032,37.8709677 14.4516129,35.0645161 14.5483871,35.016129 C14.8387097,34.9677419 15.0322581,34.7258065 15.0806452,34.4354839 C15.7580645,30.6612903 17.7419355,24.516129 20.3064516,24.2258065 C22.2419355,23.983871 25.1451613,25.5322581 27.0806452,26.983871 L21.5645161,34.0483871 C21.516129,34.0967742 21.516129,34.0967742 21.516129,34.1451613 C21.2741935,34.1451613 21.0806452,34.0967742 20.8387097,34.0967742 C18.9516129,34.0967742 17.2096774,34.9677419 16.0483871,36.4193548 C15.0322581,37.6774194 14.5967742,39.2741935 14.7903226,40.9193548 C14.983871,42.516129 15.8064516,43.9677419 17.0645161,44.983871 C18.1290323,45.8548387 19.4354839,46.2903226 20.8387097,46.2903226 C22.7258065,46.2903226 24.4677419,45.4193548 25.6290323,43.9677419 C26.8870968,42.3709677 27.2258065,40.3387097 26.6935484,38.5 C26.7903226,38.4516129 26.9354839,38.4032258 26.983871,38.2580645 L32.4516129,31.2419355 C32.5,31.2903226 32.5,31.2903226 32.5483871,31.3387097 C34.1935484,32.6451613 36.2258065,34.6774194 36.4677419,36.8064516 C36.7580645,39.3709677 31.3387097,42.7580645 27.8548387,44.2580645 C27.6129032,44.3548387 27.4193548,44.6451613 27.4193548,44.9354839 C27.4193548,45.0322581 27.2741935,56.2096774 22.0483871,58.7741935 C19.3870968,60.0806452 15.7580645,58.9193548 11.2096774,55.3870968 L8.40322581,53.2580645 C3.80645161,49.7258065 1.82258065,46.483871 2.4516129,43.5806452 L2.4516129,43.5806452 Z" id="Shape"></path>
                        <path d="M46.3387097,7.91935484 C46,7.67741935 45.5645161,7.72580645 45.3225806,8.06451613 L40.3387097,14.4516129 C40.0967742,14.7903226 40.1451613,15.2258065 40.483871,15.4677419 C40.6290323,15.5645161 40.7741935,15.6129032 40.9193548,15.6129032 C41.1129032,15.6129032 41.3548387,15.516129 41.5,15.3225806 L46.483871,8.93548387 C46.7258065,8.64516129 46.6290323,8.16129032 46.3387097,7.91935484 L46.3387097,7.91935484 Z" id="Shape"></path>
                        <path d="M9.80645161,48.0806452 L16.1935484,53.0645161 C16.3387097,53.1612903 16.483871,53.2096774 16.6290323,53.2096774 C16.8225806,53.2096774 17.0645161,53.1129032 17.2096774,52.9193548 C17.4516129,52.5806452 17.4032258,52.1451613 17.0645161,51.9032258 L10.6774194,46.9193548 C10.3387097,46.6774194 9.90322581,46.7258065 9.66129032,47.0645161 C9.41935484,47.4032258 9.46774194,47.8387097 9.80645161,48.0806452 L9.80645161,48.0806452 Z" id="Shape"></path>
                    </g>
                </g>
            </g>
        </g>
    </g>
</svg>