<?xml version="1.0" encoding="UTF-8"?>
<svg width="78px" height="60px" viewBox="0 0 78 60" version="1.1" xmlns="http://www.w3.org/2000/svg" xmlns:xlink="http://www.w3.org/1999/xlink">
    <!-- Generator: Sketch 49.3 (51167) - http://www.bohemiancoding.com/sketch -->
    <title>icon_Drums</title>
    <desc>Created with Sketch.</desc>
    <defs></defs>
    <g id="Full-Set-Mobile" stroke="none" stroke-width="1" fill="none" fill-rule="evenodd" opacity="0.5">
        <g id="10.0-Plans" transform="translate(-121.000000, -1927.000000)" fill="#4B4F63">
            <g id="Organization" transform="translate(48.000000, 1901.000000)">
                <path d="M148.726997,26.099565 L127.54881,36.3127144 C122.724193,35.3728541 117.022373,34.8089378 111.132582,34.8089378 C105.430762,34.8089378 100.042229,35.3101967 95.28027,36.1873997 L74.3527121,26.099565 C73.9141106,25.8489355 73.3501944,26.099565 73.099565,26.5381665 C72.8489355,26.976768 73.099565,27.5406842 73.5381665,27.7913136 L92.3353741,36.8766307 C91.4581711,37.0646028 90.5809681,37.3152322 89.8290798,37.5658616 C83.6886586,39.4455824 80.4304759,41.9518767 80.4304759,44.8967726 C80.4304759,45.8992903 80.8064201,46.8391507 81.5583084,47.7790111 C81.495651,47.9043258 81.495651,48.0922979 81.495651,48.2176126 L84.6911763,78.669089 L84.6911763,85.0601396 C84.6911763,85.5613985 85.1297779,86 85.6310367,86 L137.010071,86 C137.51133,86 137.949931,85.5613985 137.949931,85.0601396 L137.949931,78.669089 L141.145457,48.2176126 C141.145457,47.9669832 141.082799,47.7790111 140.957485,47.591039 C141.584058,46.7764934 141.960002,45.836633 141.960002,44.95943 C141.960002,42.0145341 138.70182,39.5082397 132.561398,37.628519 C131.934825,37.4405469 131.245594,37.2525748 130.556363,37.0646028 L149.6042,27.853971 C150.042802,27.6033416 150.293431,27.0394253 150.042802,26.6008238 C149.792172,26.1622223 149.228256,25.9115929 148.726997,26.099565 L148.726997,26.099565 Z M86.5708971,77.6665713 C86.6335545,77.6039139 86.6962118,77.5412566 86.7588692,77.4785992 L98.7264247,56.2377546 L109.942092,77.6665713 L86.5708971,77.6665713 L86.5708971,77.6665713 Z M136.383497,75.1602769 L125.293145,53.8567749 C127.924754,53.4181734 130.368391,52.8542572 132.561398,52.2276836 C135.38098,51.3504806 137.573987,50.3479628 139.140421,49.2827877 L136.383497,75.1602769 L136.383497,75.1602769 Z M135.568952,77.6665713 L112.197757,77.6665713 C112.260414,77.6039139 112.323072,77.5412566 112.385729,77.4785992 L124.353284,56.2377546 L135.568952,77.6665713 L135.568952,77.6665713 Z M111.132582,75.9121652 L99.8542572,54.2953764 C103.425727,54.7339779 107.247826,54.9846074 111.195239,54.9846074 C115.45594,54.9846074 119.591325,54.7339779 123.413424,54.1700617 L111.132582,75.9121652 L111.132582,75.9121652 Z M86.1322956,74.5963607 L83.5006865,49.4707598 C85.0671205,50.4732775 87.1348133,51.4131379 89.8290798,52.2276836 C92.2100594,52.9795719 94.9043258,53.5434881 97.7865643,53.9820896 L86.1322956,74.5963607 L86.1322956,74.5963607 Z M86.5708971,84.0576219 L86.5708971,79.546292 L136.070211,79.546292 L136.070211,84.0576219 L86.5708971,84.0576219 L86.5708971,84.0576219 Z M140.080282,44.8967726 C140.080282,48.7815289 128.238041,53.1048866 111.195239,53.1048866 C94.1524375,53.1048866 82.3101967,48.7815289 82.3101967,44.8967726 C82.3101967,42.4531356 87.1348133,39.7588692 95.0922979,38.1924352 L106.997196,43.9569122 C107.122511,44.0195696 107.247826,44.0195696 107.435798,44.0195696 C107.811742,44.0195696 108.125029,43.8315975 108.313001,43.5183107 C108.56363,43.0797092 108.313001,42.515793 107.874399,42.2651635 L98.2878232,37.628519 C102.109922,37.0646028 106.43328,36.751316 111.195239,36.751316 C116.207828,36.751316 120.781815,37.1272601 124.729229,37.7538337 L115.330625,42.2651635 C114.892023,42.515793 114.641394,43.0797092 114.892023,43.5183107 C115.079995,43.8315975 115.393282,44.0195696 115.769226,44.0195696 C115.894541,44.0195696 116.019856,44.0195696 116.207828,43.9569122 L127.924754,38.3177499 C135.443637,39.8841839 140.080282,42.515793 140.080282,44.8967726 L140.080282,44.8967726 Z" id="icon_Drums"></path>
            </g>
        </g>
    </g>
</svg>