<?xml version="1.0" encoding="UTF-8"?>
<svg width="54px" height="60px" viewBox="0 0 54 60" version="1.1" xmlns="http://www.w3.org/2000/svg" xmlns:xlink="http://www.w3.org/1999/xlink">
    <!-- Generator: Sketch 49.3 (51167) - http://www.bohemiancoding.com/sketch -->
    <title>icon_moraccas</title>
    <desc>Created with Sketch.</desc>
    <defs></defs>
    <g id="Full-Set-Mobile" stroke="none" stroke-width="1" fill="none" fill-rule="evenodd" opacity="0.5">
        <g id="10.0-Plans" transform="translate(-133.000000, -899.000000)" fill="#4B4F63">
            <g id="24-Hour-Play" transform="translate(48.000000, 874.000000)">
                <g id="icon_moraccas" transform="translate(85.000000, 25.000000)">
                    <path d="M41.0806452,38.0322581 L41.0806452,38.0806452 L44.8064516,56.8064516 C45,57.7741935 45.5322581,58.5967742 46.3548387,59.1290323 C46.983871,59.516129 47.6612903,59.7580645 48.3870968,59.7580645 C48.6290323,59.7580645 48.8709677,59.7580645 49.1129032,59.7096774 C50.0806452,59.516129 50.9032258,58.9354839 51.4354839,58.1612903 C51.9677419,57.3387097 52.1612903,56.3709677 51.9677419,55.4032258 L48.2419355,36.6774194 C48.2419355,36.6774194 48.2419355,36.6774194 48.2419355,36.6290323 C49.983871,35.4193548 51.483871,33.5806452 52.5,31.1612903 C54.0967742,27.4354839 54.483871,22.8870968 53.5645161,18.2903226 C51.8709677,9.67741935 45.8709677,3.24193548 39.6290323,3.24193548 C39.0483871,3.24193548 38.4677419,3.29032258 37.8870968,3.43548387 C34.5483871,4.11290323 31.8387097,6.53225806 30.1935484,10.3548387 C28.5967742,14.0806452 28.2096774,18.6290323 29.1290323,23.2258065 C30.6290323,30.8709677 35.5645161,36.8709677 41.0806452,38.0322581 L41.0806452,38.0322581 Z M50.5645161,55.6451613 C50.6612903,56.2258065 50.5645161,56.8064516 50.2258065,57.2903226 C49.8870968,57.7741935 49.4032258,58.1129032 48.8225806,58.2580645 C48.2419355,58.3548387 47.6612903,58.2580645 47.1774194,57.9193548 C46.6935484,57.5806452 46.3548387,57.0967742 46.2580645,56.516129 L42.6290323,38.2258065 L43.1129032,38.2258065 C43.6935484,38.2258065 44.2741935,38.1774194 44.8548387,38.0322581 C45.5806452,37.8870968 46.3064516,37.6451613 46.983871,37.3064516 L50.5645161,55.6451613 L50.5645161,55.6451613 Z M51.1451613,30.5806452 C49.6935484,33.9193548 47.3225806,36.0967742 44.516129,36.6290323 C44.0322581,36.7258065 43.5483871,36.7741935 43.016129,36.7741935 C37.8870968,36.7741935 32.9516129,31.6935484 30.9677419,24.6774194 C31.016129,24.6290323 31.1129032,24.6290323 31.1612903,24.5806452 L35.8064516,20.0806452 L40.8870968,24.9193548 C41.0322581,25.0645161 41.2258065,25.1129032 41.3709677,25.1129032 L41.4193548,25.1129032 C41.6129032,25.1129032 41.8064516,25.016129 41.9516129,24.8709677 L46.7903226,19.016129 L52.5967742,22.983871 C52.5967742,25.7903226 52.1129032,28.3548387 51.1451613,30.5806452 L51.1451613,30.5806452 Z M31.5,10.9354839 C32.9516129,7.59677419 35.3225806,5.41935484 38.1290323,4.88709677 C38.6129032,4.79032258 39.0967742,4.74193548 39.6290323,4.74193548 C45.1935484,4.74193548 50.5645161,10.7419355 52.1129032,18.6290323 C52.3064516,19.5 52.4032258,20.3709677 52.5,21.2419355 L47.0322581,17.516129 C46.7419355,17.3225806 46.3064516,17.3709677 46.0645161,17.6612903 L41.3225806,23.4193548 L36.2903226,18.6290323 C36,18.3387097 35.5645161,18.3387097 35.2741935,18.6290323 L30.5806452,23.1774194 C30.5806452,23.0806452 30.5322581,23.0322581 30.5322581,22.9354839 C29.6612903,18.6290323 30.0483871,14.3709677 31.5,10.9354839 L31.5,10.9354839 Z" id="Shape"></path>
                    <path d="M6.77419355,34.0645161 L6.77419355,34.0645161 L4.11290323,52.983871 C3.96774194,53.9516129 4.20967742,54.9193548 4.79032258,55.6935484 C5.37096774,56.4677419 6.24193548,57 7.20967742,57.0967742 C7.40322581,57.0967742 7.5483871,57.1451613 7.69354839,57.1451613 C9.48387097,57.1451613 11.0806452,55.8387097 11.3225806,54 L13.983871,35.0806452 L13.983871,35.0322581 C19.4032258,33.5806452 23.9516129,27.3870968 25.0645161,19.5483871 C25.6935484,14.9032258 25.0645161,10.4032258 23.2741935,6.77419355 C21.4354839,3.09677419 18.5322581,0.774193548 15.1935484,0.290322581 C14.7580645,0.241935484 14.3709677,0.193548387 13.9354839,0.193548387 C7.5,0.193548387 1.64516129,7.01612903 0.387096774,16.0645161 C-0.241935484,20.7096774 0.387096774,25.2096774 2.17741935,28.8387097 C3.33870968,31.1612903 4.93548387,32.9516129 6.77419355,34.0645161 L6.77419355,34.0645161 Z M9.91935484,53.8064516 C9.72580645,55.016129 8.61290323,55.8387097 7.40322581,55.6935484 C6.82258065,55.5967742 6.29032258,55.3064516 5.9516129,54.8225806 C5.61290323,54.3387097 5.46774194,53.7580645 5.51612903,53.1774194 L8.12903226,34.7419355 C8.80645161,35.0322581 9.53225806,35.2258065 10.2580645,35.3225806 C10.6935484,35.3709677 11.0806452,35.4193548 11.516129,35.4193548 C11.8548387,35.4193548 12.1451613,35.4193548 12.483871,35.3709677 L9.91935484,53.8064516 L9.91935484,53.8064516 Z M13.9354839,1.69354839 C14.2741935,1.69354839 14.6612903,1.74193548 15,1.79032258 C17.8548387,2.17741935 20.3225806,4.20967742 21.9677419,7.4516129 C23.6612903,10.7903226 24.2419355,15.0483871 23.6129032,19.3548387 C23.516129,20.0806452 23.3709677,20.8064516 23.2258065,21.483871 L17.9032258,15.8709677 C17.6612903,15.5806452 17.2258065,15.5806452 16.9354839,15.7741935 L10.983871,20.2741935 L7.20967742,14.4677419 C7.11290323,14.3225806 6.91935484,14.1774194 6.72580645,14.1290323 C6.53225806,14.0806452 6.33870968,14.1290323 6.19354839,14.2258065 L1.69354839,17.2258065 C1.74193548,16.9354839 1.74193548,16.5967742 1.79032258,16.3064516 C2.9516129,8.12903226 8.27419355,1.69354839 13.9354839,1.69354839 L13.9354839,1.69354839 Z M1.59677419,19.016129 C1.64516129,19.016129 1.74193548,18.9677419 1.79032258,18.9193548 L6.38709677,15.8709677 L10.2096774,21.7258065 C10.3064516,21.8709677 10.5,22.016129 10.6935484,22.0645161 C10.8870968,22.1129032 11.0806452,22.0645161 11.2741935,21.9193548 L17.3225806,17.3709677 L22.7903226,23.1774194 C20.8064516,29.4677419 16.2580645,34.016129 11.516129,34.016129 C11.1774194,34.016129 10.7903226,33.9677419 10.4516129,33.9193548 C7.59677419,33.5322581 5.12903226,31.5 3.48387097,28.2580645 C2.17741935,25.5483871 1.5,22.3548387 1.59677419,19.016129 L1.59677419,19.016129 Z" id="Shape"></path>
                </g>
            </g>
        </g>
    </g>
</svg>