<?xml version="1.0" encoding="utf-8"?>
<!-- Generator: Adobe Illustrator 16.0.0, SVG Export Plug-In . SVG Version: 6.00 Build 0)  -->
<!DOCTYPE svg PUBLIC "-//W3C//DTD SVG 1.1//EN" "http://www.w3.org/Graphics/SVG/1.1/DTD/svg11.dtd">
<svg version="1.1" id="Layer_1" xmlns="http://www.w3.org/2000/svg" xmlns:xlink="http://www.w3.org/1999/xlink" x="0px" y="0px"
	 width="64px" height="64px" viewBox="0 0 64 64" enable-background="new 0 0 64 64" fill="#ffca27" xml:space="preserve">
<g>
	<path d="M15.7,63h31.6c0.6,0,1-0.4,1-1V2c0-0.6-0.4-1-1-1H15.7c-0.6,0-1,0.4-1,1v60C14.7,62.6,15.2,63,15.7,63z M46.3,48.4H16.7
		V12.5h29.6V48.4z M16.7,61V50.4h29.6V61H16.7z M46.3,3v7.5H16.7V3H46.3z"/>
	<path d="M31.5,7.7c0.3,0,0.5-0.1,0.7-0.3c0.2-0.2,0.3-0.4,0.3-0.7c0-0.3-0.1-0.5-0.3-0.7c-0.4-0.4-1.1-0.4-1.4,0
		c-0.2,0.2-0.3,0.4-0.3,0.7c0,0.3,0.1,0.5,0.3,0.7C31,7.6,31.2,7.7,31.5,7.7z"/>
	<path d="M36.2,54.7h-9.5c-0.6,0-1,0.4-1,1s0.4,1,1,1h9.5c0.6,0,1-0.4,1-1S36.8,54.7,36.2,54.7z"/>
	<path d="M22.8,22.8c0.3,0,0.5-0.1,0.7-0.3l4.5-4.6c0.4-0.4,0.4-1,0-1.4c-0.4-0.4-1-0.4-1.4,0l-4.5,4.6c-0.4,0.4-0.4,1,0,1.4
		C22.3,22.7,22.6,22.8,22.8,22.8z"/>
	<path d="M22,31c0.2,0.2,0.4,0.3,0.7,0.3c0.3,0,0.5-0.1,0.7-0.3l12.8-13.4c0.4-0.4,0.4-1,0-1.4c-0.4-0.4-1-0.4-1.4,0L22,29.6
		C21.6,30,21.6,30.7,22,31z"/>
</g>
</svg>
