<?xml version="1.0" encoding="UTF-8"?>
<svg width="53px" height="60px" viewBox="0 0 53 60" version="1.1" xmlns="http://www.w3.org/2000/svg" xmlns:xlink="http://www.w3.org/1999/xlink">
    <!-- Generator: Sketch 50.2 (55047) - http://www.bohemiancoding.com/sketch -->
    <title>GuitarPick</title>
    <desc>Created with Sketch.</desc>
    <defs>
        <polygon id="path-1" points="0 0.00950769231 52.0817538 0.00950769231 52.0817538 59.0769231 0 59.0769231"></polygon>
    </defs>
    <g id="Gifting" stroke="none" stroke-width="1" fill="none" fill-rule="evenodd">
        <g id="2.2.1-Playing-Song-Game-Middle---Spend-Pick" transform="translate(-48.000000, -82.000000)">
            <g id="available-karma" transform="translate(24.000000, 54.000000)">
                <g id="GuitarPick" transform="translate(24.000000, 28.000000)">
                    <g id="Group-3" transform="translate(0.000000, 0.913569)">
                        <mask id="mask-2" fill="white">
                            <use xlink:href="#path-1"></use>
                        </mask>
                        <g id="Clip-2"></g>
                        <path d="M18.7356,1.39412308 C11.7386769,1.39412308 1.38452308,7.18827692 1.38452308,19.6258154 C1.38452308,26.1815077 5.98513846,35.3375077 9.99313846,42.5818154 C15.3072923,52.1845846 20.9749846,57.6925846 25.5405231,57.6925846 L26.5411385,57.6925846 C31.1076,57.6925846 36.7743692,52.1845846 42.0876,42.5818154 C46.0965231,35.3375077 50.6971385,26.1824308 50.6971385,19.6258154 C50.6971385,7.18827692 40.3429846,1.39412308 33.3460615,1.39412308 L18.7356,1.39412308 Z M26.5411385,59.0772 L25.5405231,59.0772 C18.5786769,59.0772 12.0525231,49.1624308 8.78206154,43.2519692 C4.43990769,35.4030462 -9.23076923e-05,26.4584308 -9.23076923e-05,19.6258154 C-9.23076923e-05,6.24396923 11.1792923,0.00950769231 18.7356,0.00950769231 L33.3460615,0.00950769231 C40.9023692,0.00950769231 52.0817538,6.24396923 52.0817538,19.6258154 C52.0817538,26.4593538 47.6417538,35.4039692 43.2986769,43.2519692 C40.0282154,49.1624308 33.5029846,59.0772 26.5411385,59.0772 Z" id="Fill-1" fill="#FFCA27" mask="url(#mask-2)"></path>
                    </g>
                    <path d="M43.5414462,33.1667077 C43.4454462,33.1667077 43.3476,33.1473231 43.2543692,33.1048615 C42.9072923,32.9460923 42.7531385,32.5353231 42.9109846,32.1873231 C45.7125231,26.0359385 46.3319077,20.8030154 44.7552923,16.6334769 C43.4057538,13.0620923 40.4122154,10.2180923 35.8605231,8.18178462 C35.5116,8.02578462 35.3556,7.61593846 35.5116,7.26701538 C35.6676,6.91716923 36.0783692,6.76301538 36.4263692,6.91716923 C41.3279077,9.1104 44.5651385,12.2147077 46.0512923,16.1442462 C47.7626769,20.6710154 47.1303692,26.2620923 44.1719077,32.7614769 C44.0556,33.0162462 43.8036,33.1667077 43.5414462,33.1667077" id="Fill-4" fill="#FFCA27"></path>
                    <path d="M25.8353538,53.8674462 C18.7608923,53.8674462 12.3150462,41.9699077 9.72212308,36.4896 C9.55781538,36.1434462 9.70550769,35.7308308 10.0516615,35.5674462 C10.3978154,35.4040615 10.8104308,35.5508308 10.9728923,35.8969846 C13.0608923,40.3092923 20.4030462,54.5320615 27.3815077,52.2317538 C27.7415077,52.1126769 28.1356615,52.3092923 28.2547385,52.6720615 C28.3747385,53.0357538 28.1772,53.4262154 27.8144308,53.5462154 C27.1516615,53.7649846 26.4898154,53.8674462 25.8353538,53.8674462" id="Fill-6" fill="#FFCA27"></path>
                    <path d="M40.9859077,38.2309846 C40.8806769,38.2309846 40.7745231,38.2069846 40.6729846,38.1552923 C40.3323692,37.9826769 40.1966769,37.5663692 40.3692923,37.2248308 L41.7760615,34.4556 C41.9505231,34.1140615 42.3659077,33.9774462 42.7074462,34.1519077 C43.0480615,34.3254462 43.1846769,34.7417538 43.0111385,35.0823692 L41.6043692,37.8525231 C41.4816,38.0925231 41.2379077,38.2309846 40.9859077,38.2309846" id="Fill-8" fill="#FFCA27"></path>
                </g>
            </g>
        </g>
    </g>
</svg>