<?xml version="1.0" encoding="utf-8"?>
<!-- Generator: Adobe Illustrator 16.0.0, SVG Export Plug-In . SVG Version: 6.00 Build 0)  -->
<!DOCTYPE svg PUBLIC "-//W3C//DTD SVG 1.1//EN" "http://www.w3.org/Graphics/SVG/1.1/DTD/svg11.dtd">
<svg version="1.1" id="Layer_1" xmlns="http://www.w3.org/2000/svg" xmlns:xlink="http://www.w3.org/1999/xlink" x="0px" y="0px"
	 width="64px" height="64px" viewBox="0 0 64 64" enable-background="new 0 0 64 64" fill="#ffca27" xml:space="preserve">
<g>
	<path d="M50.6,36.1c0-2.3-1.8-4.1-4.1-4.1c-0.8,0-1.5,0.2-2.1,0.6c-0.2-2.1-1.9-3.7-4.1-3.7c-0.8,0-1.5,0.2-2.1,0.6
		c-0.2-2.1-1.9-3.7-4.1-3.7c-0.8,0-1.5,0.2-2.1,0.6v-8.9c0-2.3-1.8-4.1-4.1-4.1s-4.1,1.8-4.1,4.1v19.9c-1.5-2.1-3.7-4.8-6.1-5.2
		c-1.1-0.2-2.2,0.1-3.1,0.8c-3.3,2.8,0,8.4,5.7,17.2l1,1.6c2.1,3.2,4.4,6.8,6.7,10.8c0.2,0.3,0.5,0.5,0.9,0.5c0,0,0,0,0,0L44,62.9
		c0.2,0,0.3,0,0.5-0.1c7.5-4.1,6.2-18.4,6.1-18.9V36.1z M43.7,60.9L29.5,61c-2.2-3.8-4.5-7.2-6.5-10.3l-1-1.6
		c-4.8-7.4-8.1-12.9-6.1-14.5c0.4-0.4,0.9-0.5,1.4-0.4c2.4,0.5,5.3,5,6.3,6.8c0.1,0.1,0.2,0.2,0.3,0.3c0.2,0.3,0.5,0.5,0.9,0.5
		c0.6,0,1-0.4,1-1V17.5c0-1.2,0.9-2.1,2.1-2.1s2.1,0.9,2.1,2.1v12.4v1.6v6.2c0,0.6,0.4,1,1,1s1-0.4,1-1v-6.2v-1.6
		c0-1.2,0.9-2.1,2.1-2.1c1.2,0,2.1,0.9,2.1,2.1V33v4.7v3.1c0,0.6,0.4,1,1,1s1-0.4,1-1v-3.1V33c0-1.2,0.9-2.1,2.1-2.1
		s2.1,0.9,2.1,2.1v3.1v4.7v3.1c0,0.6,0.4,1,1,1s1-0.4,1-1v-3.1v-4.7c0-1.2,0.9-2.1,2.1-2.1s2.1,0.9,2.1,2.1l0,7.9
		C48.6,44.1,49.8,57.2,43.7,60.9z"/>
	<path d="M30.4,8.2V2c0-0.6-0.4-1-1-1s-1,0.4-1,1v6.2c0,0.6,0.4,1,1,1S30.4,8.8,30.4,8.2z"/>
	<path d="M22.1,11.5c0.2,0,0.5-0.1,0.7-0.2c0.4-0.4,0.5-1,0.1-1.4l-4.1-4.7c-0.4-0.4-1-0.5-1.4-0.1c-0.4,0.4-0.5,1-0.1,1.4l4.1,4.7
		C21.6,11.4,21.9,11.5,22.1,11.5z"/>
	<path d="M37.4,11.2l4.1-4.7c0.4-0.4,0.3-1-0.1-1.4c-0.4-0.4-1-0.3-1.4,0.1l-4.1,4.7c-0.4,0.4-0.3,1,0.1,1.4
		c0.2,0.2,0.4,0.2,0.7,0.2C37,11.5,37.2,11.4,37.4,11.2z"/>
</g>
</svg>
