<?xml version="1.0" encoding="UTF-8"?>
<svg width="56px" height="60px" viewBox="0 0 56 60" version="1.1" xmlns="http://www.w3.org/2000/svg" xmlns:xlink="http://www.w3.org/1999/xlink">
    <!-- Generator: Sketch 50.2 (55047) - http://www.bohemiancoding.com/sketch -->
    <title>icon_spiffs</title>
    <desc>Created with Sketch.</desc>
    <defs></defs>
    <g id="Gifting" stroke="none" stroke-width="1" fill="none" fill-rule="evenodd">
        <g id="2.2.1-Playing-Song-Game-Middle---Redeem-Spiff" transform="translate(-48.000000, -83.000000)" fill="#FFCA27">
            <g id="available-karma" transform="translate(24.000000, 54.000000)">
                <g id="icon_spiffs" transform="translate(24.000000, 29.000000)">
                    <path d="M0.919354839,38.4677419 L4.79032258,38.4677419 L5.03225806,38.7580645 C5.61290323,45.8709677 11.1774194,48.4354839 16.6451613,50.8064516 L16.6451613,59.0322581 C16.6451613,59.4193548 16.983871,59.7580645 17.3709677,59.7580645 L25.1129032,59.7580645 C25.5,59.7580645 25.8387097,59.4193548 25.8387097,59.0322581 L25.8387097,54.1935484 C25.8387097,54.0967742 25.8387097,54.0483871 25.7903226,53.9516129 L30.2419355,53.9516129 C30.1935484,54.0483871 30.1935484,54.0967742 30.1935484,54.1935484 L30.1935484,59.0322581 C30.1935484,59.4193548 30.5322581,59.7580645 30.9193548,59.7580645 L38.6612903,59.7580645 C39.0483871,59.7580645 39.3870968,59.4193548 39.3870968,59.0322581 L39.3870968,50.4193548 L39.9193548,49.3548387 C44.3709677,46.4516129 47.4677419,42.1935484 48.6290323,37.5483871 C49.3064516,38.6612903 50.3225806,39.483871 51.5806452,39.483871 L51.9193548,39.483871 C53.3709677,39.483871 54.2419355,39.1935484 54.8709677,38.6129032 C55.6935484,37.8387097 55.8870968,36.6290323 55.8870968,34.8387097 L55.8870968,34.7903226 L55.8870968,34.4516129 C55.8870968,34.0645161 55.5483871,33.7258065 55.1612903,33.7258065 C54.7741935,33.7258065 54.4354839,34.0645161 54.4354839,34.4516129 C54.4354839,36 54.3387097,37.1129032 53.8548387,37.5967742 C53.516129,37.9354839 52.8387097,38.0806452 51.6290323,38.0322581 C50.3225806,38.0322581 49.1129032,36 49.1129032,34.4032258 L49.1129032,34.2580645 L49.1129032,33.7258065 L49.1129032,33.3870968 C49.1129032,26.3709677 44.7096774,20.0806452 37.6451613,16.9354839 C38.9032258,15.1935484 39.6774194,13.0645161 39.6774194,10.7419355 C39.6774194,4.93548387 34.9354839,0.193548387 29.1290323,0.193548387 C23.3225806,0.193548387 18.5806452,4.93548387 18.5806452,10.7419355 C18.5806452,12.5806452 19.0645161,14.3225806 19.8870968,15.8225806 L19.6935484,15.8225806 C19.4516129,15.8709677 19.2096774,15.9193548 18.9677419,15.9677419 C18,16.1612903 17.0806452,16.4032258 16.0645161,16.8870968 C15.5806452,16.7903226 14.1290323,15.483871 13.2580645,14.7096774 C11.3225806,12.9677419 9.82258065,11.6129032 8.75806452,12.483871 C8.17741935,12.9677419 8.37096774,13.5967742 9.77419355,17.3225806 C10.2096774,18.4354839 10.7903226,20.1290323 10.9354839,20.7096774 C9.67741935,22.016129 8.51612903,23.8548387 7.35483871,26.2741935 L0.870967742,26.2741935 C0.483870968,26.2741935 0.14516129,26.6129032 0.14516129,27 L0.14516129,37.6451613 C0.193548387,38.1290323 0.532258065,38.4677419 0.919354839,38.4677419 L0.919354839,38.4677419 Z M29.1774194,1.69354839 C34.1612903,1.69354839 38.2741935,5.75806452 38.2741935,10.7903226 C38.2741935,15.7741935 34.2096774,19.8870968 29.1774194,19.8870968 C24.1451613,19.8870968 20.0806452,15.8225806 20.0806452,10.7903226 C20.1290323,5.80645161 24.1935484,1.69354839 29.1774194,1.69354839 L29.1774194,1.69354839 Z M1.64516129,27.8225806 L7.93548387,27.8225806 C8.32258065,27.8225806 8.61290323,27.5322581 8.66129032,27.1451613 C9.87096774,24.6290323 11.0322581,22.8387097 12.2419355,21.6290323 C12.7258065,21.1451613 12.5322581,20.516129 11.2258065,16.8870968 C10.8870968,16.016129 10.4516129,14.8548387 10.2096774,14.0806452 C10.8387097,14.516129 11.7580645,15.3387097 12.3870968,15.9193548 C14.4677419,17.8064516 15.7258065,18.8709677 16.7419355,18.3387097 C17.6129032,17.9032258 18.4354839,17.7096774 19.4032258,17.516129 C19.6451613,17.4677419 19.8870968,17.4193548 20.1290323,17.3709677 C20.3709677,17.3225806 20.516129,17.1774194 20.6129032,16.9354839 C22.5483871,19.5967742 25.6451613,21.3870968 29.1774194,21.3870968 C32.1290323,21.3870968 34.7903226,20.1774194 36.7258065,18.1935484 C36.7741935,18.2419355 36.8709677,18.2903226 36.9193548,18.3387097 C43.5483871,21.1935484 47.6612903,27 47.6612903,33.5322581 L47.6612903,33.8709677 C47.6612903,40.5 43.1612903,45.6774194 39,48.3387097 C38.9032258,48.3870968 38.8064516,48.5322581 38.7580645,48.6290323 L38.0806452,50.0322581 C38.0322581,50.1290323 38.0322581,50.2258065 38.0322581,50.3709677 L38.0322581,58.4032258 L31.7419355,58.4032258 L31.7419355,54.1935484 C31.7419355,54.0967742 31.7419355,54.0483871 31.6935484,53.9516129 L31.983871,53.9516129 C32.3709677,53.9516129 32.7096774,53.6129032 32.7096774,53.2258065 C32.7096774,52.8387097 32.3709677,52.5 31.983871,52.5 L24.2419355,52.5 C23.8548387,52.5 23.516129,52.8387097 23.516129,53.2258065 C23.516129,53.6129032 23.8548387,53.9516129 24.2419355,53.9516129 L24.5322581,53.9516129 C24.483871,54.0483871 24.483871,54.0967742 24.483871,54.1935484 L24.483871,58.3064516 L18.1935484,58.3064516 L18.1935484,50.2741935 C18.1935484,49.8870968 17.9032258,49.5483871 17.516129,49.5483871 C12.0967742,47.1774194 7.01612903,44.9032258 6.58064516,38.4193548 C6.58064516,38.2741935 6.48387097,38.1290323 6.38709677,37.983871 L5.75806452,37.2580645 C5.61290323,37.1129032 5.41935484,37.016129 5.22580645,37.016129 L1.74193548,37.016129 L1.74193548,27.8225806 L1.64516129,27.8225806 Z" id="Shape"></path>
                    <path d="M14.7096774,28.4516129 C15.6290323,28.4516129 16.4032258,27.6774194 16.4032258,26.7580645 C16.4032258,25.8387097 15.6290323,25.0645161 14.7096774,25.0645161 C13.7903226,25.0645161 13.016129,25.8387097 13.016129,26.7580645 C12.9677419,27.6774194 13.7419355,28.4516129 14.7096774,28.4516129 L14.7096774,28.4516129 Z M14.7096774,26.4677419 C14.8548387,26.4677419 14.9516129,26.5645161 14.9516129,26.7096774 C14.9516129,26.8548387 14.8548387,26.9516129 14.7096774,26.9516129 C14.5645161,26.9516129 14.4677419,26.8548387 14.4677419,26.7096774 C14.4193548,26.6129032 14.5645161,26.4677419 14.7096774,26.4677419 L14.7096774,26.4677419 Z" id="Shape"></path>
                    <path d="M26.1290323,14.2258065 L31.9354839,14.2258065 C32.3225806,14.2258065 32.6612903,13.8870968 32.6612903,13.5 C32.6612903,13.1129032 32.3225806,12.7741935 31.9354839,12.7741935 L26.1290323,12.7741935 C25.7419355,12.7741935 25.4032258,13.1129032 25.4032258,13.5 C25.4032258,13.8870968 25.7419355,14.2258065 26.1290323,14.2258065 L26.1290323,14.2258065 Z" id="Shape"></path>
                    <path d="M26.1290323,8.41935484 L31.9354839,8.41935484 C32.3225806,8.41935484 32.6612903,8.08064516 32.6612903,7.69354839 C32.6612903,7.30645161 32.3225806,6.96774194 31.9354839,6.96774194 L26.1290323,6.96774194 C25.7419355,6.96774194 25.4032258,7.30645161 25.4032258,7.69354839 C25.4032258,8.08064516 25.7419355,8.41935484 26.1290323,8.41935484 L26.1290323,8.41935484 Z" id="Shape"></path>
                    <path d="M20.3225806,27.8225806 L35.8064516,27.8225806 C36.1935484,27.8225806 36.5322581,27.483871 36.5322581,27.0967742 C36.5322581,26.7096774 36.1935484,26.3709677 35.8064516,26.3709677 L20.3225806,26.3709677 C19.9354839,26.3709677 19.5967742,26.7096774 19.5967742,27.0967742 C19.5967742,27.483871 19.9354839,27.8225806 20.3225806,27.8225806 L20.3225806,27.8225806 Z" id="Shape"></path>
                </g>
            </g>
        </g>
    </g>
</svg>