<?xml version="1.0" encoding="UTF-8"?>
<svg width="60px" height="60px" viewBox="0 0 60 60" version="1.1" xmlns="http://www.w3.org/2000/svg" xmlns:xlink="http://www.w3.org/1999/xlink">
    <!-- Generator: Sketch 50.2 (55047) - http://www.bohemiancoding.com/sketch -->
    <title>icon_ticket</title>
    <desc>Created with Sketch.</desc>
    <defs>
        <polygon id="path-1" points="0 0.00025 60 0.00025 60 60 0 60"></polygon>
    </defs>
    <g id="Gifting" stroke="none" stroke-width="1" fill="none" fill-rule="evenodd">
        <g id="2.2.1-Playing-Song-Game-Middle---Redeem-Tickets" transform="translate(-48.000000, -83.000000)">
            <g id="available-karma" transform="translate(24.000000, 54.000000)">
                <g id="icon_ticket" transform="translate(24.000000, 29.000000)">
                    <g id="Group-3">
                        <mask id="mask-2" fill="white">
                            <use xlink:href="#path-1"></use>
                        </mask>
                        <g id="Clip-2"></g>
                        <path d="M1.4179,43.0145 L16.9849,58.5825 C19.1589,57.0145 24.8779,56.2385 27.9489,58.7845 L58.5669,28.1655 C56.0639,25.1725 56.5259,19.6865 58.7839,16.9715 L43.0279,1.2155 C40.3139,3.4735 34.8269,3.9365 31.8339,1.4325 L1.2159,32.0515 C3.7629,35.1225 2.9849,40.8405 1.4179,43.0145 M16.5939,59.6345 L0.3659,43.4065 C0.1659,43.2065 0.1669,42.8845 0.3659,42.6845 C1.9389,41.1115 2.8629,35.1085 0.1489,32.3945 C-0.0501,32.1955 -0.0501,31.8725 0.1489,31.6735 L31.4569,0.3655 C31.6559,0.1665 31.9799,0.1655 32.1789,0.3655 C34.7799,2.9665 40.3939,2.4405 42.6849,0.1495 C42.8839,-0.0495 43.2069,-0.0495 43.4059,0.1495 L59.8509,16.5935 C60.0499,16.7925 60.0499,17.1165 59.8509,17.3155 C57.5599,19.6065 57.0329,25.2195 59.6349,27.8205 C59.8339,28.0205 59.8339,28.3435 59.6349,28.5425 L28.3269,59.8505 C28.1279,60.0495 27.8049,60.0505 27.6049,59.8505 C24.8919,57.1375 18.8889,58.0605 17.3149,59.6345 C17.1159,59.8335 16.7929,59.8335 16.5939,59.6345" id="Fill-1" fill="#FFCA27" mask="url(#mask-2)"></path>
                    </g>
                    <path d="M38.2509,11.1161 C36.6579,9.5241 34.0659,9.5241 32.4749,11.1161 L11.2249,32.3661 C9.6319,33.9591 9.6319,36.5501 11.2249,38.1421 L21.8569,48.7761 C23.4499,50.3681 26.0409,50.3681 27.6339,48.7761 L48.8839,27.5261 C50.4769,25.9331 50.4769,23.3421 48.8839,21.7491 L38.2509,11.1161 Z M21.1359,49.4981 L10.5019,38.8651 C8.5119,36.8741 8.5119,33.6351 10.5019,31.6441 L31.7519,10.3941 C33.7429,8.4041 36.9819,8.4041 38.9729,10.3941 L49.6049,21.0281 C51.5969,23.0181 51.5969,26.2571 49.6049,28.2471 L28.3549,49.4981 C26.3649,51.4891 23.1259,51.4881 21.1359,49.4981 Z" id="Fill-4" fill="#FFCA27"></path>
                    <path d="M18.5019,34.9857 C18.3029,34.7867 18.3029,34.4637 18.5019,34.2637 L34.3719,18.3937 C34.5709,18.1947 34.8949,18.1947 35.0939,18.3937 C35.2939,18.5937 35.2929,18.9167 35.0939,19.1157 L19.2249,34.9857 C19.0239,35.1857 18.7019,35.1857 18.5019,34.9857" id="Fill-6" fill="#FFCA27"></path>
                    <path d="M27.5703,37.1454 C27.3713,36.9454 27.3713,36.6224 27.5703,36.4234 L36.5313,27.4624 C36.7303,27.2634 37.0533,27.2634 37.2533,27.4624 C37.4533,27.6624 37.4533,27.9854 37.2533,28.1854 L28.2933,37.1454 C28.0933,37.3444 27.7703,37.3444 27.5703,37.1454" id="Fill-8" fill="#FFCA27"></path>
                </g>
            </g>
        </g>
    </g>
</svg>